<?xml version="1.0" encoding="UTF-8" standalone="no"?>
<!DOCTYPE svg PUBLIC "-//W3C//DTD SVG 1.1//EN" "http://www.w3.org/Graphics/SVG/1.1/DTD/svg11.dtd">
<svg width="100%" height="100%" viewBox="0 0 475 494" version="1.1" xmlns="http://www.w3.org/2000/svg" xmlns:xlink="http://www.w3.org/1999/xlink" xml:space="preserve" xmlns:serif="http://www.serif.com/" style="fill-rule:evenodd;clip-rule:evenodd;stroke-linejoin:round;stroke-miterlimit:2;">
    <g transform="matrix(4.16667,0,0,4.16667,-199.557,-215.978)">
        <g>
            <path d="M65.914,92.128L67.089,89.622L71.475,101.936L76.438,87.46L81.369,103.52L84.548,89.739L88.446,98.849L91.638,90.707L94.81,97.302L98.505,90L99.405,92.128L102.142,92.128L102.142,120.83C99.044,123.425 95.636,126.107 91.883,128.873C71.957,114.191 61.536,101.879 56.359,92.128L65.914,92.128ZM153.294,70.906C154.5,70.907 155.572,71.389 156.365,72.178C157.154,72.971 157.635,74.042 157.636,75.248L157.636,161.588C157.635,162.794 157.154,163.866 156.365,164.659C155.572,165.448 154.5,165.93 153.294,165.931L110.738,165.931C109.532,165.93 108.46,165.448 107.667,164.659C106.878,163.866 106.397,162.794 106.396,161.588L106.396,75.248C106.397,74.042 106.878,72.971 107.667,72.178C108.46,71.389 109.532,70.907 110.738,70.906L153.294,70.906ZM51.776,77.204C51.324,69.01 54.959,63.887 58.087,61.032C61.936,57.519 66.528,55.671 71.272,55.671C72.303,55.671 73.341,55.758 74.379,55.935C80.868,57.037 86.493,61.442 90.216,68.34L91.795,71.268L93.543,68.438C97.788,61.566 103.181,57.295 109.139,56.086C114.058,55.085 119.111,56.293 123.741,59.578C126.417,61.475 128.49,63.88 129.894,66.653L110.738,66.653C108.371,66.652 106.208,67.618 104.659,69.17C103.108,70.719 102.141,72.881 102.142,75.248L102.142,88.282L101.953,88.282L98.816,80.868L94.897,88.611L91.277,81.087L88.29,88.708L83.449,77.394L80.841,88.697L76.641,75.013L71.406,90.281L67.575,79.524L63.469,88.282L54.527,88.282C52.72,84.006 51.947,80.304 51.776,77.204ZM91.883,133.635L93.015,132.811C96.293,130.424 99.327,128.093 102.142,125.817L102.142,161.588C102.141,163.956 103.108,166.118 104.659,167.667C106.208,169.219 108.371,170.185 110.738,170.184L153.294,170.184C155.661,170.185 157.823,169.219 159.372,167.667C160.924,166.118 161.891,163.956 161.89,161.588L161.89,75.248C161.891,72.881 160.924,70.719 159.372,69.17C157.823,67.618 155.661,66.652 153.294,66.653L134.118,66.653C132.478,62.599 129.722,59.104 125.967,56.441C120.448,52.527 114.364,51.101 108.374,52.317C102.159,53.579 96.544,57.539 91.997,63.834C87.741,57.407 81.804,53.294 75.023,52.143C68.116,50.971 60.993,53.174 55.496,58.191C50.203,63.02 47.519,69.848 47.936,77.416C48.572,88.927 56.516,107.881 90.751,132.811L91.883,133.635Z" style="fill:rgb(28,181,224);fill-rule:nonzero;"/>
            <path d="M114.087,86.18L149.945,86.18L149.945,149.639L114.087,149.639L114.087,86.18ZM152.072,81.926L111.96,81.926C111.401,81.926 110.853,82.153 110.456,82.549C110.061,82.945 109.833,83.493 109.833,84.053L109.833,151.766C109.833,152.326 110.061,152.874 110.456,153.27C110.853,153.666 111.401,153.893 111.96,153.893L152.072,153.893C152.632,153.893 153.18,153.666 153.575,153.27C153.972,152.874 154.198,152.326 154.198,151.766L154.198,84.053C154.198,83.493 153.972,82.945 153.575,82.549C153.18,82.153 152.632,81.926 152.072,81.926Z" style="fill:rgb(28,181,224);fill-rule:nonzero;"/>
            <path d="M132.016,156.138C129.907,156.138 128.198,157.848 128.198,159.957C128.198,162.065 129.907,163.775 132.016,163.775C134.125,163.775 135.834,162.065 135.834,159.957C135.834,157.848 134.125,156.138 132.016,156.138Z" style="fill:rgb(28,181,224);fill-rule:nonzero;"/>
            <rect x="117.271" y="158.524" width="7.585" height="3.025" style="fill:rgb(28,181,224);"/>
            <rect x="139.401" y="158.524" width="7.585" height="3.025" style="fill:rgb(28,181,224);"/>
        </g>
    </g>
</svg>
