<?xml version="1.0" encoding="UTF-8" standalone="no"?>
<!DOCTYPE svg PUBLIC "-//W3C//DTD SVG 1.1//EN" "http://www.w3.org/Graphics/SVG/1.1/DTD/svg11.dtd">
<svg width="100%" height="100%" viewBox="0 0 530 411" version="1.1" xmlns="http://www.w3.org/2000/svg" xmlns:xlink="http://www.w3.org/1999/xlink" xml:space="preserve" xmlns:serif="http://www.serif.com/" style="fill-rule:evenodd;clip-rule:evenodd;stroke-linejoin:round;stroke-miterlimit:2;">
    <g transform="matrix(4.16667,0,0,4.16667,-1022.78,-280.187)">
        <g>
            <path d="M252.542,79.336C252.543,77.582 253.251,76.004 254.406,74.846C255.565,73.69 257.143,72.982 258.898,72.981L326.6,72.981C325.093,74.41 323.844,76.063 322.937,77.892L322.903,77.965L259.502,77.965C258.983,77.965 258.472,78.176 258.105,78.544C257.737,78.912 257.526,79.421 257.526,79.942L257.526,135.867C257.526,136.388 257.737,136.897 258.105,137.265C258.472,137.633 258.983,137.844 259.502,137.844L356.701,137.844C357.222,137.844 357.732,137.633 358.1,137.265C358.468,136.897 358.679,136.388 358.679,135.867L358.679,94.435C359.296,93.611 359.843,92.739 360.299,91.82C361.356,89.694 361.948,87.329 361.948,84.855C361.948,82.383 361.356,80.018 360.299,77.892C359.389,76.06 358.132,74.412 356.622,72.981L357.303,72.981C359.06,72.982 360.639,73.69 361.798,74.846C362.953,76.004 363.662,77.582 363.662,79.336L363.662,136.47C363.661,138.227 362.952,139.806 361.797,140.964C360.64,142.12 359.064,142.828 357.313,142.829L258.898,142.829C257.143,142.828 255.565,142.12 254.406,140.964C253.251,139.806 252.543,138.228 252.542,136.471L252.542,79.336ZM323.516,92.88C323.298,93.226 323.046,93.582 322.77,93.902C322.495,94.221 322.2,94.502 321.912,94.711C321.623,94.922 321.347,95.059 321.09,95.129C320.198,95.376 319.6,96.202 319.643,97.126C319.686,98.051 320.358,98.817 321.269,98.981C321.342,98.993 323.156,99.32 325.506,99.321C326.718,99.319 328.074,99.225 329.437,98.936C332.85,101.155 337.06,102.465 341.615,102.466C346.588,102.464 351.161,100.921 354.724,98.318L354.724,133.89L261.48,133.89L261.48,81.919L321.574,81.919C321.389,82.875 321.288,83.856 321.288,84.855C321.286,87.747 322.098,90.486 323.516,92.88ZM353.313,75.306C354.253,76.107 355.054,77.006 355.731,77.965C356.114,78.509 356.468,79.066 356.757,79.65C357.558,81.264 357.992,83.012 357.993,84.855C357.992,86.699 357.558,88.447 356.757,90.061C356.235,91.115 355.544,92.105 354.724,93.019C353.661,94.203 352.374,95.253 350.893,96.105C348.27,97.615 345.075,98.513 341.615,98.512C337.526,98.513 333.807,97.252 330.965,95.212C330.472,94.858 329.848,94.75 329.265,94.918C328.47,95.15 327.547,95.275 326.635,95.33C327.04,94.727 327.359,94.156 327.588,93.696C327.912,93.047 327.857,92.276 327.442,91.681C326.028,89.649 325.244,87.334 325.242,84.855C325.243,83.846 325.378,82.866 325.628,81.919C325.834,81.138 326.116,80.38 326.479,79.65C326.767,79.069 327.106,78.507 327.488,77.965C328.694,76.251 330.348,74.753 332.342,73.605C332.73,73.382 333.134,73.177 333.546,72.981C335.918,71.854 338.668,71.199 341.615,71.199C344.562,71.198 347.313,71.855 349.685,72.981C351.027,73.617 352.25,74.4 353.313,75.306ZM258.898,146.783L357.313,146.783C360.149,146.784 362.736,145.623 364.594,143.76C366.456,141.9 367.617,139.312 367.617,136.471L367.617,79.336C367.617,76.498 366.456,73.909 364.593,72.049C362.734,70.186 360.144,69.026 357.303,69.027L350.53,69.027C347.828,67.885 344.805,67.245 341.615,67.245C338.424,67.246 335.399,67.884 332.697,69.027L258.898,69.027C256.058,69.026 253.47,70.186 251.611,72.049C249.747,73.909 248.587,76.498 248.587,79.336L248.587,136.471C248.587,139.311 249.747,141.9 251.611,143.76C253.47,145.623 256.058,146.784 258.898,146.783Z" style="fill:rgb(28,181,224);fill-rule:nonzero;"/>
            <path d="M253.156,161.609C252.86,161.475 252.404,161.11 251.949,160.513C251.262,159.625 250.596,158.267 250.14,156.805C249.897,156.034 249.714,155.234 249.592,154.458L294.137,154.458L294.34,154.486C294.391,154.937 294.531,155.364 294.736,155.729C295.126,156.426 295.701,156.92 296.338,157.251C296.978,157.581 297.697,157.754 298.45,157.755L319.542,157.755C320.548,157.751 321.49,157.452 322.267,156.864C322.653,156.569 322.999,156.193 323.257,155.729C323.462,155.364 323.602,154.937 323.653,154.486L323.856,154.458L368.406,154.458C368.339,154.883 368.259,155.313 368.155,155.744C367.744,157.446 367.031,159.13 366.244,160.245C365.857,160.804 365.454,161.213 365.133,161.438C364.804,161.666 364.604,161.707 364.465,161.708L253.537,161.708C253.439,161.707 253.327,161.688 253.156,161.609ZM366.535,165.184C367.625,164.662 368.469,163.849 369.188,162.918C370.258,161.516 371.059,159.798 371.632,157.986C372.2,156.172 372.53,154.271 372.532,152.481C372.532,151.96 372.322,151.451 371.953,151.083C371.585,150.714 371.076,150.503 370.555,150.503L323.856,150.503C322.85,150.507 321.907,150.807 321.132,151.395C320.745,151.69 320.4,152.065 320.141,152.529C319.937,152.895 319.796,153.322 319.745,153.772L319.542,153.801L298.45,153.801L298.247,153.772C298.197,153.321 298.056,152.894 297.852,152.528C297.461,151.832 296.885,151.338 296.249,151.007C295.61,150.678 294.891,150.504 294.137,150.503L247.445,150.503C246.924,150.503 246.415,150.714 246.047,151.083C245.679,151.451 245.468,151.96 245.468,152.481C245.469,153.847 245.662,155.275 246.003,156.682C246.521,158.792 247.354,160.845 248.514,162.513C249.099,163.346 249.769,164.09 250.591,164.671C251.405,165.248 252.419,165.664 253.537,165.663L364.465,165.663C365.206,165.664 365.915,165.478 366.535,165.184Z" style="fill:rgb(28,181,224);fill-rule:nonzero;"/>
            <path d="M334.373,82.571C333.111,82.571 332.088,83.594 332.088,84.855C332.088,86.118 333.111,87.141 334.373,87.141C335.635,87.141 336.658,86.118 336.658,84.855C336.658,83.594 335.635,82.571 334.373,82.571Z" style="fill:rgb(28,181,224);fill-rule:nonzero;"/>
            <path d="M339.515,84.855C339.515,86.118 340.537,87.141 341.799,87.141C343.062,87.141 344.084,86.118 344.084,84.855C344.084,83.594 343.062,82.571 341.799,82.571C340.537,82.571 339.515,83.594 339.515,84.855Z" style="fill:rgb(28,181,224);fill-rule:nonzero;"/>
            <path d="M349.225,87.141C350.488,87.141 351.511,86.118 351.511,84.855C351.511,83.594 350.488,82.571 349.225,82.571C347.963,82.571 346.941,83.594 346.941,84.855C346.941,86.118 347.963,87.141 349.225,87.141Z" style="fill:rgb(28,181,224);fill-rule:nonzero;"/>
            <path d="M326.218,111.332L326.218,117.549L326.217,117.556L326.217,119.575C324.447,121.588 322.338,123.297 319.977,124.607L318.417,125.364L318.293,125.448C318.193,125.491 318.078,125.539 317.936,125.6L317.854,125.638L317.824,125.652L317.799,125.66C314.984,126.859 311.903,127.531 308.654,127.532C305.587,127.531 302.671,126.936 299.991,125.866C299.895,125.801 299.793,125.742 299.684,125.694L298.045,124.983C295.74,123.806 293.656,122.26 291.871,120.423L291.871,111.332C291.872,110.283 292.297,109.338 292.995,108.637C293.697,107.938 294.642,107.514 295.691,107.514L300.261,107.514C300.215,107.841 300.182,108.133 300.158,108.368C300.004,108.458 299.857,108.556 299.721,108.664C298.831,109.371 298.289,110.346 297.892,111.311C297.498,112.279 297.258,113.261 297.089,114.025C296.666,115.947 296.489,117.433 296.488,118.611C296.49,120.101 296.766,121.137 297.333,121.874C297.542,122.143 297.793,122.357 298.056,122.512C298.388,123.341 299.195,123.927 300.143,123.928C301.386,123.927 302.393,122.92 302.393,121.677C302.393,120.434 301.386,119.427 300.143,119.427C299.571,119.427 299.055,119.646 298.658,119.998C298.574,119.672 298.509,119.227 298.511,118.611C298.51,117.639 298.662,116.283 299.065,114.46C299.274,113.503 299.603,112.254 300.116,111.329C300.371,110.866 300.665,110.493 300.97,110.255C301.281,110.017 301.578,109.894 301.992,109.878L302.028,109.877C302.236,109.877 302.454,109.928 302.704,110.046C303.14,110.251 303.651,110.686 304.133,111.3C304.861,112.217 305.524,113.511 305.984,114.842C306.448,116.17 306.71,117.544 306.707,118.581C306.709,118.865 306.685,119.113 306.65,119.333C306.315,119.135 305.929,119.014 305.512,119.014C304.269,119.014 303.262,120.02 303.262,121.264C303.262,122.507 304.269,123.514 305.512,123.515C306.629,123.514 307.549,122.699 307.726,121.631C307.844,121.519 307.949,121.396 308.042,121.268C308.315,120.886 308.48,120.457 308.584,120.008C308.688,119.558 308.731,119.081 308.731,118.581C308.73,117.548 308.546,116.41 308.231,115.257C307.753,113.53 306.982,111.777 305.977,110.385C305.472,109.69 304.908,109.082 304.258,108.623C303.672,108.209 302.991,107.927 302.254,107.875C302.27,107.759 302.287,107.639 302.307,107.514L317.886,107.514C317.958,108.127 318.01,108.721 318.027,109.283C318.031,109.457 318.034,109.629 318.034,109.8C318.033,111.055 317.894,112.227 317.623,113.438C316.392,113.538 315.345,114.477 315.158,115.751C314.941,117.236 315.972,118.62 317.457,118.838C317.59,118.858 317.722,118.867 317.852,118.867C319.179,118.867 320.345,117.891 320.543,116.539C320.649,115.82 320.468,115.103 320.033,114.52C319.897,114.337 319.736,114.182 319.564,114.042C319.887,112.646 320.059,111.269 320.058,109.8C320.058,109.609 320.055,109.417 320.049,109.224C320.032,108.67 319.99,108.1 319.927,107.514L322.399,107.514C323.448,107.514 324.393,107.938 325.094,108.637C325.792,109.338 326.217,110.283 326.218,111.332ZM304.83,98.56C303.738,97.463 303.068,95.97 303.067,94.301C303.068,92.632 303.738,91.138 304.83,90.042C305.927,88.949 307.42,88.279 309.089,88.278C310.758,88.279 312.251,88.949 313.348,90.042C314.441,91.139 315.111,92.632 315.112,94.301C315.111,95.97 314.441,97.463 313.348,98.56C312.251,99.653 310.758,100.322 309.089,100.323C307.419,100.322 305.927,99.653 304.83,98.56ZM316.144,101.355C317.947,99.557 319.067,97.05 319.066,94.301C319.067,91.552 317.947,89.045 316.144,87.246C314.345,85.444 311.838,84.323 309.089,84.324C306.34,84.323 303.833,85.444 302.034,87.246C300.232,89.045 299.112,91.552 299.113,94.301C299.112,97.05 300.232,99.557 302.034,101.355C302.979,102.301 304.12,103.052 305.387,103.559L295.691,103.559C293.552,103.559 291.599,104.438 290.199,105.841C288.796,107.24 287.917,109.193 287.917,111.332L287.917,121.213C287.917,121.703 288.103,122.182 288.433,122.544C290.657,124.988 293.321,127.019 296.292,128.529L296.401,128.58L297.751,129.167C297.87,129.251 297.996,129.328 298.136,129.386C301.373,130.737 304.93,131.486 308.654,131.486C312.451,131.486 316.067,130.696 319.349,129.297L319.348,129.294L319.441,129.264L319.541,129.214C319.688,129.152 319.878,129.076 320.113,128.967C320.219,128.918 320.317,128.858 320.41,128.792L321.766,128.134L321.858,128.086C324.871,126.421 327.536,124.207 329.717,121.573C330.009,121.221 330.171,120.77 330.171,120.313L330.171,117.563L330.172,117.556L330.172,111.332C330.172,109.193 329.293,107.24 327.89,105.841C326.49,104.438 324.538,103.559 322.399,103.559L312.791,103.559C314.058,103.052 315.199,102.301 316.144,101.355Z" style="fill:rgb(28,181,224);fill-rule:nonzero;"/>
        </g>
    </g>
</svg>
