<?xml version="1.0" encoding="UTF-8" standalone="no"?>
<!DOCTYPE svg PUBLIC "-//W3C//DTD SVG 1.1//EN" "http://www.w3.org/Graphics/SVG/1.1/DTD/svg11.dtd">
<svg width="100%" height="100%" viewBox="0 0 479 595" version="1.1" xmlns="http://www.w3.org/2000/svg" xmlns:xlink="http://www.w3.org/1999/xlink" xml:space="preserve" xmlns:serif="http://www.serif.com/" style="fill-rule:evenodd;clip-rule:evenodd;stroke-linejoin:round;stroke-miterlimit:2;">
    <g transform="matrix(4.16667,0,0,4.16667,-263.837,-997)">
        <g>
            <path d="M90.179,282.678L90.97,280.992L93.923,289.279L97.262,275.516L100.58,296.303L102.72,281.071L105.343,287.202L107.491,281.722L109.627,286.161L112.113,281.247L112.718,282.678L120.126,282.678L120.126,313.575L88.024,313.575L88.024,282.678L90.179,282.678ZM88.024,256.763L120.126,256.763L120.126,280.09L114.434,280.09L112.323,275.101L109.685,280.311L107.249,275.248L105.239,280.377L101.982,272.763L100.226,280.37L97.399,262.224L93.876,281.435L91.298,274.197L88.534,280.09L88.024,280.09L88.024,256.763ZM84.216,315.478C84.216,315.98 84.419,316.471 84.773,316.825C85.128,317.18 85.618,317.383 86.12,317.383L122.031,317.383C122.531,317.383 123.022,317.18 123.376,316.825C123.732,316.471 123.935,315.98 123.935,315.478L123.935,254.858C123.935,254.357 123.732,253.867 123.376,253.512C123.022,253.158 122.531,252.955 122.031,252.955L86.12,252.955C85.618,252.955 85.128,253.158 84.773,253.512C84.419,253.867 84.216,254.357 84.216,254.858L84.216,280.09L81.635,280.09L81.635,282.678L84.216,282.678L84.216,315.478Z" style="fill:rgb(28,181,224);fill-rule:nonzero;"/>
            <path d="M104.075,319.393C102.188,319.393 100.656,320.924 100.656,322.812C100.656,324.7 102.188,326.231 104.075,326.231C105.963,326.231 107.494,324.7 107.494,322.812C107.494,320.924 105.963,319.393 104.075,319.393Z" style="fill:rgb(28,181,224);fill-rule:nonzero;"/>
            <rect x="90.874" y="321.529" width="6.79" height="2.709" style="fill:rgb(28,181,224);"/>
            <rect x="110.687" y="321.529" width="6.79" height="2.709" style="fill:rgb(28,181,224);"/>
            <path d="M167.274,304.84C163.938,304.84 161.236,302.128 161.236,298.792C161.236,295.456 163.938,292.745 167.274,292.745C170.62,292.745 173.322,295.456 173.322,298.792C173.322,302.128 170.62,304.84 167.274,304.84ZM93.992,348.392C91.533,347.58 89.16,346.41 86.916,345.01L86.915,345.009C75.215,337.714 68.126,324.63 68.129,310.803L68.129,276.413C68.13,273.602 69.261,271.081 71.101,269.237C72.188,268.152 73.515,267.323 74.994,266.817C75.243,268.102 76.139,269.149 77.33,269.62L77.33,324.273C77.331,328.524 80.774,331.968 85.025,331.969L123.125,331.969C127.375,331.968 130.819,328.524 130.821,324.273L130.821,269.61C131.996,269.134 132.879,268.091 133.126,266.817C134.605,267.323 135.932,268.152 137.019,269.237C138.859,271.081 139.99,273.602 139.99,276.413L139.99,310.676C139.991,317.687 138.282,324.508 135.093,330.474C131.903,336.44 127.24,341.55 121.308,345.184C119.229,346.46 116.524,347.598 113.702,348.39C110.882,349.186 107.939,349.642 105.399,349.64L102.891,349.64C101.604,349.64 99.928,349.522 98.302,349.301C96.678,349.083 95.08,348.753 93.992,348.392ZM81.138,246.976C81.138,245.896 81.57,244.937 82.276,244.227C82.986,243.521 83.946,243.089 85.025,243.088L123.125,243.088C124.204,243.089 125.164,243.521 125.873,244.227C126.58,244.937 127.011,245.896 127.012,246.976L127.012,324.273C127.011,325.352 126.58,326.312 125.873,327.022C125.164,327.728 124.204,328.16 123.125,328.161L85.025,328.161C83.946,328.16 82.986,327.728 82.276,327.022C81.57,326.312 81.138,325.352 81.138,324.273L81.138,246.976ZM167.274,287.985C161.313,287.985 156.477,292.821 156.477,298.792C156.477,303.982 160.132,308.31 165.003,309.354L165.003,353.745C165.001,360.228 162.381,366.077 158.134,370.328C153.882,374.576 148.034,377.196 141.55,377.197L128.554,377.197C122.071,377.195 116.281,374.58 112.076,370.337C108.029,366.245 105.491,360.661 105.312,354.446L105.399,354.446C108.494,354.444 111.813,353.915 115.006,353.018C118.198,352.115 121.258,350.849 123.819,349.283C130.511,345.185 135.764,339.418 139.333,332.74C142.903,326.06 144.798,318.468 144.798,310.676L144.798,276.413C144.799,272.29 143.12,268.536 140.418,265.837C138.475,263.892 135.981,262.489 133.2,261.85L133.2,261.048C133.2,259.452 132.214,258.09 130.821,257.526L130.821,246.976C130.819,242.725 127.375,239.282 123.125,239.28L85.025,239.28C80.774,239.282 77.331,242.725 77.33,246.976L77.33,257.517C75.921,258.074 74.92,259.441 74.92,261.048L74.92,261.85C72.139,262.489 69.645,263.892 67.702,265.837C64.999,268.536 63.32,272.29 63.321,276.413L63.321,310.803C63.325,326.267 71.22,340.876 84.37,349.088C86.885,350.656 89.595,352.003 92.486,352.957L92.771,353.051L92.486,352.957C94.021,353.461 95.824,353.814 97.657,354.065C98.618,354.194 99.578,354.291 100.502,354.355C100.659,361.898 103.73,368.742 108.659,373.719C113.717,378.835 120.758,382.007 128.554,382.005L141.55,382.005C149.346,382.006 156.426,378.838 161.532,373.727C166.643,368.621 169.812,361.541 169.81,353.745L169.81,309.287C174.554,308.145 178.08,303.888 178.08,298.792C178.08,292.821 173.244,287.985 167.274,287.985Z" style="fill:rgb(28,181,224);fill-rule:nonzero;"/>
        </g>
    </g>
</svg>
