<?xml version="1.0" encoding="UTF-8" standalone="no"?>
<!DOCTYPE svg PUBLIC "-//W3C//DTD SVG 1.1//EN" "http://www.w3.org/Graphics/SVG/1.1/DTD/svg11.dtd">
<svg width="100%" height="100%" viewBox="0 0 472 363" version="1.1" xmlns="http://www.w3.org/2000/svg" xmlns:xlink="http://www.w3.org/1999/xlink" xml:space="preserve" xmlns:serif="http://www.serif.com/" style="fill-rule:evenodd;clip-rule:evenodd;stroke-linejoin:round;stroke-miterlimit:2;">
    <g transform="matrix(4.16667,0,0,4.16667,-1051.9,-1863.08)">
        <g>
            <path d="M257.784,452.629L360.269,452.724L360.216,509.837L257.732,509.742L257.784,452.629ZM252.457,515.224L302.051,515.268L302.037,530.145L285.995,530.13L285.991,534.14L331.91,534.183L331.913,530.172L315.872,530.158L315.886,515.281L365.48,515.328L365.543,447.243L252.521,447.139L252.457,515.224Z" style="fill:rgb(16,33,125);fill-rule:nonzero;"/>
            <path d="M304.859,471.936C303.673,470.747 302.947,469.128 302.946,467.318C302.947,465.508 303.673,463.889 304.859,462.7C306.047,461.515 307.666,460.788 309.477,460.787C311.286,460.788 312.906,461.515 314.095,462.7C315.28,463.889 316.006,465.508 316.007,467.318C316.006,469.128 315.28,470.747 314.095,471.936C312.906,473.121 311.286,473.848 309.477,473.849C307.666,473.848 306.047,473.121 304.859,471.936ZM321.275,500.187L319.592,501.005L319.456,501.097C319.348,501.143 319.223,501.195 319.067,501.263L318.984,501.301L318.952,501.315L318.921,501.325C315.868,502.626 312.529,503.354 309.005,503.354C305.645,503.354 302.45,502.696 299.519,501.513L299.278,501.362L297.509,500.595C294.999,499.316 292.745,497.621 290.805,495.62L290.805,485.788C290.806,484.65 291.266,483.625 292.024,482.865C292.784,482.108 293.809,481.647 294.947,481.647L299.904,481.647C299.853,482.002 299.817,482.319 299.791,482.573C299.624,482.672 299.464,482.777 299.317,482.894C298.353,483.661 297.765,484.719 297.334,485.765C296.906,486.814 296.647,487.88 296.464,488.708C296.004,490.792 295.812,492.403 295.811,493.681C295.815,495.297 296.113,496.42 296.728,497.219C296.951,497.507 297.223,497.716 297.503,497.883C297.856,498.796 298.737,499.446 299.775,499.447C301.123,499.446 302.214,498.354 302.215,497.007C302.214,495.658 301.123,494.566 299.775,494.565C299.155,494.566 298.595,494.805 298.165,495.185C298.074,494.832 298.003,494.35 298.005,493.681C298.004,492.627 298.169,491.156 298.606,489.181C298.832,488.143 299.19,486.788 299.746,485.785C300.023,485.282 300.342,484.878 300.672,484.62C301.008,484.362 301.332,484.228 301.781,484.211L301.82,484.21C302.044,484.211 302.281,484.265 302.553,484.393C303.026,484.615 303.578,485.087 304.102,485.753C304.891,486.747 305.61,488.151 306.109,489.594C306.612,491.034 306.897,492.524 306.894,493.649C306.896,493.957 306.869,494.226 306.831,494.464C306.468,494.25 306.05,494.118 305.598,494.118C304.25,494.118 303.157,495.21 303.156,496.559C303.157,497.907 304.25,498.999 305.598,498.999C306.809,498.999 307.807,498.114 307.998,496.956C308.378,496.596 308.631,496.141 308.792,495.675C309.007,495.05 309.086,494.372 309.087,493.649C309.086,492.528 308.888,491.295 308.545,490.045C308.028,488.171 307.191,486.27 306.102,484.762C305.554,484.008 304.943,483.348 304.238,482.85C303.603,482.401 302.865,482.096 302.065,482.039C302.082,481.913 302.101,481.783 302.121,481.647L319.017,481.647C319.094,482.312 319.152,482.956 319.169,483.565C319.175,483.755 319.177,483.942 319.177,484.127C319.176,485.488 319.025,486.759 318.732,488.071C317.396,488.18 316.261,489.198 316.058,490.58C315.822,492.19 316.94,493.691 318.551,493.928C318.695,493.949 318.839,493.959 318.98,493.959C320.418,493.959 321.683,492.9 321.898,491.435C322.012,490.654 321.816,489.877 321.345,489.245C321.198,489.047 321.022,488.879 320.835,488.727C321.186,487.213 321.372,485.72 321.371,484.127C321.371,483.921 321.368,483.712 321.363,483.501C321.345,482.9 321.298,482.282 321.23,481.647L323.91,481.647C325.048,481.647 326.073,482.108 326.833,482.865C327.59,483.625 328.05,484.65 328.051,485.788L328.051,494.7C326.126,496.892 323.844,498.764 321.275,500.187ZM323.91,477.359L313.49,477.359C317.476,475.764 320.295,471.874 320.296,467.318C320.294,461.342 315.452,456.5 309.477,456.498C303.5,456.5 298.658,461.343 298.657,467.318C298.658,471.874 301.477,475.764 305.462,477.359L294.947,477.359C292.627,477.358 290.51,478.311 288.991,479.833C287.471,481.351 286.517,483.468 286.517,485.788L286.517,496.504C286.517,497.034 286.718,497.555 287.075,497.947C289.489,500.597 292.376,502.8 295.599,504.436L295.717,504.492L297.262,505.163C297.371,505.234 297.475,505.313 297.598,505.365C301.11,506.831 304.967,507.643 309.005,507.643C313.122,507.643 317.043,506.787 320.603,505.269L320.602,505.268L320.7,505.234L320.811,505.181C320.965,505.114 321.17,505.032 321.428,504.914L321.632,504.781L323.224,504.008L323.323,503.956C326.59,502.15 329.481,499.75 331.846,496.894C332.162,496.513 332.339,496.022 332.339,495.526L332.339,485.788C332.34,483.468 331.386,481.351 329.865,479.833C328.347,478.311 326.23,477.358 323.91,477.359Z" style="fill:rgb(16,33,125);fill-rule:nonzero;"/>
        </g>
    </g>
</svg>
