<?xml version="1.0" encoding="UTF-8" standalone="no"?>
<!DOCTYPE svg PUBLIC "-//W3C//DTD SVG 1.1//EN" "http://www.w3.org/Graphics/SVG/1.1/DTD/svg11.dtd">
<svg width="100%" height="100%" viewBox="0 0 602 456" version="1.1" xmlns="http://www.w3.org/2000/svg" xmlns:xlink="http://www.w3.org/1999/xlink" xml:space="preserve" xmlns:serif="http://www.serif.com/" style="fill-rule:evenodd;clip-rule:evenodd;stroke-linejoin:round;stroke-miterlimit:2;">
    <g transform="matrix(4.16667,0,0,4.16667,-986.925,-995.792)">
        <g>
            <path d="M296.223,319.176L299.318,318.987L299.318,265.014C298.811,265.297 298.305,265.582 297.815,265.892C297.272,266.234 296.744,266.6 296.223,266.973L296.223,319.176Z" style="fill:rgb(16,33,125);fill-rule:nonzero;"/>
            <path d="M299.318,256.107L299.318,247.457C299.317,242.78 295.528,238.991 290.851,238.99L245.328,238.99C240.652,238.991 236.863,242.78 236.862,247.457L236.862,339.815C236.863,344.492 240.652,348.282 245.328,348.283L290.851,348.283C294.621,348.282 297.812,345.817 298.908,342.412L295.553,342.412C295.309,342.853 295.005,343.258 294.65,343.614C293.672,344.589 292.339,345.187 290.851,345.188L245.328,345.188C243.84,345.187 242.507,344.589 241.53,343.614C240.555,342.638 239.957,341.304 239.956,339.815L239.956,247.457C239.957,245.969 240.555,244.635 241.53,243.658C242.506,242.684 243.84,242.085 245.328,242.085L290.851,242.085C292.339,242.085 293.672,242.684 294.65,243.658C295.624,244.635 296.223,245.969 296.223,247.457L296.223,257.58C297.23,257.047 298.263,256.556 299.318,256.107Z" style="fill:rgb(16,33,125);fill-rule:nonzero;"/>
            <path d="M293.547,259.125L293.679,259.045L293.679,256.875C293.679,256.476 293.517,256.085 293.235,255.803C292.952,255.52 292.561,255.358 292.161,255.358L244.017,255.358C243.617,255.358 243.227,255.52 242.945,255.803C242.662,256.085 242.5,256.476 242.5,256.875L242.5,329.309C242.5,329.708 242.662,330.099 242.945,330.381C243.227,330.663 243.617,330.825 244.017,330.825L278.728,330.825L278.543,327.791L245.534,327.791L245.534,258.392L290.645,258.392L290.645,261.16C291.585,260.446 292.545,259.757 293.547,259.125Z" style="fill:rgb(16,33,125);fill-rule:nonzero;"/>
            <path d="M290.645,319.517L293.679,319.331L293.679,269.001C292.603,269.945 291.589,270.955 290.645,272.03L290.645,319.517Z" style="fill:rgb(16,33,125);fill-rule:nonzero;"/>
            <path d="M268.089,340.557C267.235,340.557 266.47,340.213 265.908,339.653C265.349,339.092 265.006,338.327 265.005,337.473C265.006,336.617 265.349,335.852 265.908,335.291C266.47,334.731 267.235,334.389 268.089,334.388C268.945,334.389 269.709,334.731 270.271,335.291C270.83,335.852 271.173,336.617 271.174,337.473C271.173,338.327 270.83,339.092 270.271,339.653C269.709,340.213 268.945,340.557 268.089,340.557ZM263.005,337.473C263.005,340.281 265.281,342.557 268.089,342.558C270.899,342.557 273.174,340.281 273.175,337.473C273.174,334.664 270.899,332.388 268.089,332.388C265.281,332.388 263.005,334.664 263.005,337.473Z" style="fill:rgb(16,33,125);fill-rule:nonzero;"/>
            <path d="M274.442,279.613C274.441,281.375 273.732,282.956 272.577,284.113C271.421,285.267 269.84,285.976 268.077,285.977C266.315,285.976 264.734,285.267 263.577,284.113C262.423,282.956 261.713,281.375 261.713,279.613C261.713,277.851 262.423,276.269 263.577,275.113C264.734,273.959 266.316,273.25 268.077,273.249C269.839,273.25 271.421,273.959 272.577,275.113C273.732,276.269 274.441,277.851 274.442,279.613ZM258.618,279.613C258.62,284.838 262.853,289.071 268.077,289.072C273.302,289.071 277.535,284.838 277.536,279.613C277.535,274.389 273.302,270.155 268.077,270.154C262.853,270.155 258.62,274.389 258.618,279.613Z" style="fill:rgb(16,33,125);fill-rule:nonzero;"/>
            <path d="M279.035,309.944L277.481,310.7L277.356,310.785C277.249,310.83 277.131,310.88 276.989,310.941L276.926,310.971L276.878,310.993L276.851,311.001C274.019,312.207 270.916,312.885 267.647,312.885C264.527,312.885 261.557,312.272 258.834,311.171L258.614,311.034L256.986,310.327C254.605,309.114 252.469,307.502 250.643,305.591L250.643,296.456C250.643,295.307 251.11,294.268 251.873,293.502C252.639,292.74 253.677,292.273 254.827,292.272L258.857,292.272C258.801,292.625 258.759,292.944 258.729,293.216L258.475,293.388C257.48,294.182 256.911,295.227 256.497,296.229C256.088,297.235 255.847,298.234 255.676,299.001C255.252,300.93 255.07,302.434 255.069,303.654C255.069,304.431 255.143,305.095 255.295,305.684C255.41,306.125 255.572,306.524 255.787,306.88C255.963,307.174 256.186,307.431 256.43,307.645C256.653,308.832 257.69,309.729 258.941,309.73C260.354,309.729 261.499,308.586 261.499,307.172C261.499,305.758 260.354,304.614 258.941,304.613C258.7,304.613 258.471,304.657 258.251,304.72C258.2,304.461 258.161,304.113 258.163,303.654C258.161,302.75 258.306,301.443 258.698,299.668C258.9,298.738 259.221,297.545 259.683,296.718C259.91,296.303 260.163,295.995 260.387,295.821C260.493,295.741 260.588,295.685 260.687,295.644L260.739,295.625C260.837,295.591 260.944,295.571 261.075,295.565L261.094,295.564C261.207,295.565 261.341,295.59 261.528,295.678C261.851,295.828 262.305,296.2 262.746,296.764C263.415,297.604 264.052,298.838 264.49,300.107C264.933,301.372 265.179,302.685 265.175,303.626L265.171,303.742L264.955,303.72C263.542,303.721 262.398,304.864 262.397,306.278C262.398,307.692 263.542,308.836 264.955,308.837C266.255,308.836 267.317,307.864 267.481,306.608L267.487,306.602C267.812,306.146 267.995,305.655 268.112,305.159C268.225,304.662 268.27,304.152 268.27,303.626C268.269,302.537 268.078,301.372 267.756,300.193C267.267,298.428 266.487,296.647 265.443,295.199C264.917,294.476 264.324,293.831 263.615,293.33C263.127,292.985 262.56,292.714 261.941,292.575C261.958,292.475 261.976,292.374 261.995,292.272L276.169,292.272C276.275,293.039 276.35,293.769 276.369,294.446C276.374,294.613 276.377,294.778 276.377,294.941C276.376,296.196 276.236,297.349 275.954,298.564C275.913,298.741 275.862,298.924 275.815,299.104C274.062,299.329 272.615,300.68 272.345,302.501C272.317,302.697 272.302,302.893 272.302,303.087C272.303,304.072 272.664,304.994 273.273,305.703C273.879,306.413 274.747,306.92 275.743,307.066C275.943,307.096 276.139,307.109 276.329,307.109C277.314,307.109 278.236,306.747 278.946,306.139C279.656,305.532 280.163,304.664 280.309,303.667C280.338,303.471 280.352,303.274 280.352,303.078C280.353,302.219 280.074,301.375 279.555,300.68C279.34,300.39 279.077,300.147 278.797,299.928C278.856,299.706 278.917,299.484 278.969,299.264C279.298,297.847 279.473,296.434 279.472,294.941C279.472,294.747 279.469,294.552 279.463,294.355C279.444,293.684 279.378,292.987 279.291,292.272L281.24,292.272C282.39,292.273 283.429,292.74 284.195,293.503C284.957,294.268 285.424,295.307 285.425,296.456L285.425,302.603L285.424,302.611L285.424,304.76C283.62,306.839 281.46,308.602 279.035,309.944ZM288.163,306.324C288.391,306.049 288.519,305.695 288.519,305.337L288.519,302.619L288.52,302.611L288.52,296.456C288.514,292.442 285.254,289.184 281.24,289.178L254.827,289.178C250.814,289.184 247.554,292.442 247.548,296.456L247.548,306.228C247.548,306.611 247.694,306.986 247.951,307.269C250.117,309.65 252.712,311.629 255.608,313.1L255.692,313.14L257.096,313.75C257.193,313.818 257.29,313.887 257.403,313.934C260.556,315.25 264.02,315.979 267.647,315.979C271.346,315.979 274.866,315.211 278.064,313.848L278.064,313.847L278.135,313.823L278.244,313.77C278.396,313.705 278.583,313.63 278.806,313.528L278.99,313.408L280.436,312.705L280.508,312.668C283.443,311.047 286.039,308.89 288.163,306.324Z" style="fill:rgb(16,33,125);fill-rule:nonzero;"/>
            <path d="M275.744,307.066L275.741,307.066L275.744,307.066Z" style="fill:rgb(16,33,125);fill-rule:nonzero;"/>
            <path d="M377.77,308.79C377.395,309.521 376.586,310.53 375.539,311.55C373.969,313.091 371.87,314.7 369.892,315.953C368.903,316.58 367.942,317.119 367.103,317.519C366.27,317.921 365.541,318.179 365.117,318.257C362.965,318.682 360.947,319.602 358.889,320.365C356.831,321.136 354.766,321.757 352.595,321.755C351.784,321.755 350.956,321.67 350.092,321.473C347.839,320.96 344.996,319.979 341.923,319.046C341.802,318.994 341.679,318.954 341.554,318.935C341.333,318.868 341.115,318.802 340.891,318.736C337.416,317.721 333.686,316.825 330.019,316.821C329.19,316.821 328.364,316.875 327.544,316.979C326.465,312.619 325.702,308.267 324.767,303.842C325.698,303.547 326.432,303.288 327.188,302.967C328.277,302.505 329.355,301.945 331.172,300.995C332.285,300.408 333.819,300.073 335.503,300.075C338.187,300.069 341.219,300.92 343.53,302.518C345.342,303.763 347.322,304.257 349.189,304.556C351.062,304.851 352.863,304.968 354.441,305.315C355.049,305.44 355.957,305.869 356.583,306.417C356.9,306.688 357.15,306.983 357.301,307.251C357.454,307.521 357.514,307.748 357.515,307.962C357.513,308.148 357.475,308.349 357.324,308.63C357.159,308.916 357.075,308.96 356.956,309.024C356.837,309.083 356.611,309.136 356.245,309.135C355.826,309.138 355.262,309.064 354.618,308.998C354.602,308.997 354.46,308.977 354.279,308.944C353.624,308.83 352.369,308.572 350.98,308.346C349.583,308.12 348.049,307.916 346.687,307.914C345.884,307.921 345.148,307.969 344.4,308.239C344.029,308.38 343.628,308.59 343.277,308.98C343.104,309.175 342.952,309.415 342.852,309.68C342.751,309.945 342.703,310.228 342.704,310.496C342.705,310.891 342.798,311.245 342.928,311.562C343.059,311.882 343.231,312.173 343.436,312.464C343.993,313.241 344.74,313.79 345.564,314.241C346.802,314.91 348.254,315.357 349.742,315.663C351.23,315.966 352.745,316.116 354.093,316.117C355.064,316.115 355.939,316.044 356.716,315.854C358.271,315.469 360.303,315.06 362.359,314.44C364.416,313.815 366.517,312.991 368.255,311.643C369.457,310.702 370.765,309.564 372.106,308.693C372.774,308.258 373.445,307.893 374.088,307.644C374.733,307.396 375.342,307.266 375.918,307.267C376.588,307.27 377.224,307.426 377.948,307.867L378.04,307.936L378.041,307.938L378.044,307.973C378.05,308.068 377.99,308.375 377.77,308.79ZM320.462,318.543L317.528,305.666L321.357,304.755L324.291,317.631L320.462,318.543ZM379.574,305.234C378.396,304.502 377.126,304.167 375.918,304.171C374.875,304.172 373.888,304.405 372.974,304.757C371.602,305.289 370.377,306.084 369.27,306.899C368.165,307.716 367.176,308.56 366.352,309.202C365.116,310.172 363.342,310.916 361.465,311.477C359.587,312.045 357.627,312.442 355.974,312.85C355.576,312.95 354.89,313.024 354.093,313.022C352.608,313.024 350.715,312.786 349.118,312.33C348.321,312.104 347.595,311.823 347.04,311.521C346.729,311.354 346.483,311.181 346.294,311.02C346.418,311.014 346.545,311.009 346.687,311.009C347.886,311.006 349.58,311.24 351.039,311.494C351.772,311.621 352.45,311.751 353.005,311.856C353.282,311.908 353.529,311.955 353.741,311.992C353.957,312.03 354.126,312.059 354.312,312.078C354.879,312.133 355.525,312.227 356.245,312.229C356.865,312.228 357.569,312.156 358.278,311.823C358.989,311.496 359.631,310.884 360.043,310.107C360.418,309.422 360.612,308.679 360.61,307.962C360.611,307.128 360.358,306.358 359.988,305.714C359.427,304.743 358.623,304.011 357.769,303.446C356.909,302.885 355.997,302.491 355.101,302.292C353.208,301.883 351.353,301.77 349.676,301.499C347.992,301.231 346.525,300.824 345.283,299.968C342.368,297.971 338.812,296.986 335.503,296.98C333.424,296.983 331.43,297.372 329.738,298.253C327.921,299.204 326.904,299.727 325.98,300.118C325.084,300.498 324.207,300.787 322.652,301.255C322.495,301.245 322.338,301.251 322.183,301.287L315.258,302.935C314.408,303.138 313.881,303.984 314.075,304.837L317.717,320.816C317.812,321.23 318.067,321.589 318.428,321.813C318.788,322.038 319.223,322.108 319.637,322.01L326.561,320.361C326.698,320.329 326.822,320.274 326.94,320.211C327.919,320.012 328.948,319.916 330.019,319.916C332.801,319.913 335.843,320.54 338.829,321.366C332.37,330.316 321.862,336.009 310.286,336.007C309.092,336.007 307.885,335.946 306.67,335.822C305.462,335.699 304.275,335.516 303.111,335.276C301.815,335.011 300.552,334.668 299.318,334.267C298.262,333.924 297.23,333.534 296.223,333.098C294.703,332.439 293.241,331.68 291.847,330.825C290.365,329.916 288.96,328.899 287.638,327.791C286.836,327.119 286.064,326.415 285.325,325.676L290.645,325.315L293.679,325.109L296.223,324.936L298.598,324.775C298.865,324.758 299.107,324.667 299.318,324.533C299.781,324.239 300.076,323.713 300.037,323.127C300.002,322.616 299.72,322.183 299.318,321.928C299.05,321.758 298.73,321.665 298.389,321.688L296.223,321.835L293.679,322.008L290.645,322.214L281.91,322.806L281.885,322.81L281.711,322.84L281.593,322.863L281.418,322.93L281.312,322.974L281.171,323.062L281.05,323.143L281.024,323.162L280.94,323.247L280.85,323.332L280.829,323.36L280.734,323.495L280.661,323.607L280.586,323.773L280.543,323.882L280.503,324.057L280.48,324.178L280.475,324.346L280.471,324.454L280.698,327.791L280.904,330.825L281.183,334.939L281.25,335.94L281.319,336.94L281.403,338.176L281.47,339.176L281.538,340.177L281.589,340.932C281.648,341.784 282.385,342.429 283.238,342.371C284.091,342.313 284.735,341.575 284.677,340.723L284.64,340.177L284.573,339.176L284.284,334.939L284.005,330.825L283.852,328.553C284.687,329.348 285.559,330.106 286.465,330.825C289.388,333.142 292.667,335.045 296.223,336.44C297.234,336.837 298.265,337.195 299.318,337.507C300.548,337.871 301.806,338.176 303.089,338.418C304.162,338.62 305.25,338.789 306.357,338.901C307.676,339.036 308.987,339.102 310.286,339.102C323.263,339.101 334.982,332.528 341.943,322.289C344.61,323.117 347.15,323.972 349.402,324.489C350.5,324.741 351.568,324.85 352.595,324.85C355.359,324.848 357.804,324.073 359.972,323.265C362.14,322.448 364.063,321.606 365.706,321.295C366.36,321.167 367.028,320.934 367.75,320.625C370.254,319.542 373.419,317.492 376.083,315.236C377.412,314.105 378.606,312.93 379.515,311.753C379.969,311.163 380.355,310.572 380.645,309.957C380.931,309.342 381.136,308.693 381.139,307.973C381.142,307.458 381.018,306.902 380.738,306.413C380.459,305.922 380.042,305.521 379.574,305.234Z" style="fill:rgb(16,33,125);fill-rule:nonzero;"/>
            <path d="M369.016,281.01C369.847,281.011 370.589,281.344 371.139,281.892C371.686,282.441 372.02,283.184 372.02,284.015L372.02,290.473C371.388,291.167 370.699,291.82 369.818,292.506C369.292,292.914 368.698,293.335 368.014,293.778L368.014,289.715L368.007,289.565L367.929,288.761L367.914,288.685L367.905,288.599L367.882,288.525L367.841,288.391L367.815,288.31L367.781,288.245L367.712,288.118L367.673,288.048L367.631,287.994L367.538,287.882L367.531,287.874L367.482,287.814L367.444,287.784L367.437,287.776L367.325,287.685L367.245,287.621L367.233,287.614L367.205,287.6L367.076,287.53L366.982,287.48L366.941,287.467L366.795,287.424L366.693,287.393L366.654,287.389L366.497,287.373L366.385,287.363L366.349,287.366L366.314,287.365L366.198,287.382L366.077,287.394L366.042,287.404L365.901,287.449L365.788,287.484L365.759,287.498L365.628,287.57L365.541,287.617L365.526,287.625L365.502,287.643L365.39,287.736L365.356,287.767L365.29,287.82L365.282,287.83L365.281,287.832L365.187,287.945L365.1,288.054L365.094,288.062L365.024,288.194L364.959,288.317L364.955,288.325L364.906,288.489L364.872,288.604L364.87,288.61L364.857,288.748L364.841,288.91L364.841,295.418C362.715,296.245 360.41,296.701 357.99,296.701C355.802,296.701 353.706,296.326 351.753,295.643L351.751,288.91L351.741,288.812L351.721,288.605L351.679,288.464L351.633,288.316L351.538,288.138L351.492,288.054L351.302,287.82L351.302,287.819L351.068,287.625L351.028,287.603L350.804,287.483L350.66,287.438L350.516,287.394C350.416,287.374 350.313,287.363 350.207,287.363C350.102,287.363 349.999,287.373 349.9,287.393L349.76,287.435L349.611,287.481L349.389,287.599L349.347,287.622L349.112,287.815L348.919,288.048L348.873,288.132L348.778,288.31L348.732,288.456L348.689,288.599L348.667,288.802L348.656,288.903L348.654,289.562L348.654,294.101C347.891,293.677 347.238,293.271 346.669,292.873C345.806,292.269 345.128,291.68 344.501,291.046L344.501,284.015C344.501,283.184 344.835,282.442 345.382,281.892C345.932,281.344 346.674,281.011 347.505,281.01L369.016,281.01ZM354.919,273.674C354.051,272.803 353.518,271.617 353.518,270.296C353.518,268.976 354.051,267.79 354.919,266.919C355.79,266.05 356.977,265.518 358.296,265.518C359.616,265.518 360.803,266.05 361.674,266.919C362.542,267.79 363.074,268.976 363.075,270.296C363.074,271.617 362.542,272.803 361.673,273.674C360.803,274.542 359.616,275.075 358.296,275.075C356.977,275.075 355.79,274.542 354.919,273.674ZM341.406,284.015L341.406,291.673C341.406,292.062 341.554,292.438 341.818,292.725C342.683,293.66 343.659,294.546 344.895,295.409C345.883,296.101 347.046,296.781 348.45,297.488C348.588,297.63 348.654,297.668 348.706,297.707C348.8,297.771 348.842,297.792 348.884,297.815C349.015,297.885 349.106,297.925 349.231,297.98C349.35,298.033 349.483,298.089 349.617,298.144C352.198,299.206 355.03,299.796 357.99,299.796C360.995,299.796 363.86,299.182 366.471,298.09C366.706,298.079 366.94,298.022 367.152,297.904C369.038,296.843 370.501,295.894 371.716,294.95C372.931,294.007 373.892,293.066 374.743,292.069C374.985,291.788 375.115,291.435 375.115,291.064L375.115,284.015C375.113,280.648 372.384,277.918 369.016,277.915L360.246,277.915C363.648,277.045 366.167,273.968 366.17,270.296C366.167,265.95 362.643,262.425 358.296,262.422C353.95,262.425 350.426,265.95 350.423,270.296C350.425,273.968 352.946,277.045 356.347,277.915L347.505,277.915C344.137,277.918 341.409,280.648 341.406,284.015Z" style="fill:rgb(16,33,125);fill-rule:nonzero;"/>
            <path d="M253.317,336.94L259.43,336.94L259.43,338.176L253.317,338.176L253.317,336.94ZM261.43,340.177L261.43,334.939L251.316,334.939L251.316,340.177L261.43,340.177Z" style="fill:rgb(16,33,125);fill-rule:nonzero;"/>
            <path d="M279.101,336.94L279.039,335.94L278.979,334.939L274.989,334.939L274.989,340.177L279.298,340.177L279.237,339.176L279.176,338.176L276.989,338.176L276.989,336.94L279.101,336.94Z" style="fill:rgb(16,33,125);fill-rule:nonzero;"/>
            <path d="M323.159,270.366C323.303,271.208 324.103,271.774 324.946,271.63L341.225,268.848L341.249,268.841L341.42,268.794L341.535,268.759L341.703,268.674L341.803,268.62L341.936,268.517L342.046,268.425L342.072,268.404L342.147,268.309L342.227,268.217L342.243,268.187L342.326,268.041L342.387,267.925L342.445,267.75L342.476,267.639L342.498,267.46L342.509,267.338L342.497,267.169L342.49,267.062L339.707,250.783C339.564,249.94 338.764,249.374 337.921,249.518C337.079,249.662 336.513,250.462 336.656,251.304L338.712,263.328C333.159,259.028 326.395,256.213 319.018,255.497C317.785,255.377 316.536,255.313 315.273,255.313C309.579,255.313 304.176,256.558 299.318,258.786C298.259,259.271 297.228,259.804 296.223,260.38C295.354,260.88 294.504,261.41 293.679,261.974C292.629,262.691 291.616,263.458 290.645,264.273C286.644,267.632 283.34,271.793 280.982,276.509C280.599,277.273 280.908,278.203 281.673,278.585C282.437,278.967 283.366,278.658 283.749,277.893C285.514,274.368 287.856,271.182 290.645,268.453C291.605,267.514 292.616,266.628 293.679,265.803C294.498,265.166 295.348,264.566 296.223,264.002C297.221,263.359 298.254,262.766 299.318,262.224C304.109,259.786 309.529,258.408 315.273,258.408C316.486,258.408 317.684,258.471 318.865,258.59C325.911,259.303 332.337,262.093 337.536,266.339L324.424,268.58C323.581,268.724 323.015,269.523 323.159,270.366Z" style="fill:rgb(16,33,125);fill-rule:nonzero;"/>
        </g>
    </g>
</svg>
