<?xml version="1.0" encoding="UTF-8" standalone="no"?>
<!DOCTYPE svg PUBLIC "-//W3C//DTD SVG 1.1//EN" "http://www.w3.org/Graphics/SVG/1.1/DTD/svg11.dtd">
<svg width="100%" height="100%" viewBox="0 0 334 457" version="1.1" xmlns="http://www.w3.org/2000/svg" xmlns:xlink="http://www.w3.org/1999/xlink" xml:space="preserve" xmlns:serif="http://www.serif.com/" style="fill-rule:evenodd;clip-rule:evenodd;stroke-linejoin:round;stroke-miterlimit:2;">
    <g transform="matrix(4.16667,0,0,4.16667,-1864.19,-251.912)">
        <g>
            <path d="M495.718,155.143C493.488,155.143 491.678,156.952 491.678,159.183C491.678,161.415 493.488,163.223 495.718,163.223C497.949,163.223 499.758,161.415 499.758,159.183C499.758,156.952 497.949,155.143 495.718,155.143Z" style="fill:rgb(28,181,224);fill-rule:nonzero;"/>
            <rect x="480.116" y="157.667" width="8.026" height="3.202" style="fill:rgb(28,181,224);"/>
            <rect x="503.531" y="157.667" width="8.027" height="3.202" style="fill:rgb(28,181,224);"/>
            <path d="M453.948,111.974C455.47,112.011 456.674,113.279 456.638,114.792C456.602,116.307 455.333,117.511 453.82,117.474C452.306,117.438 451.102,116.179 451.138,114.665C451.174,113.142 452.434,111.938 453.948,111.974ZM495.877,131.542L495.952,131.54C496.317,131.533 496.689,131.529 497.066,131.529C498.896,131.528 500.854,131.625 502.692,131.951C504.531,132.276 506.24,132.833 507.597,133.701C508.452,134.248 509.031,134.874 509.402,135.518C509.772,136.163 509.94,136.83 509.941,137.491C509.94,138.437 509.591,139.374 508.912,140.15C508.232,140.925 507.224,141.542 505.864,141.8C505.441,141.879 505.014,141.918 504.586,141.918C502.907,141.92 501.196,141.317 499.788,140.296C498.379,139.277 497.294,137.854 496.804,136.296C496.32,134.769 496.037,133.176 495.877,131.542ZM494.222,137.114C494.916,139.3 496.368,141.161 498.199,142.49C500.032,143.816 502.265,144.625 504.586,144.627C505.176,144.627 505.771,144.574 506.364,144.462C508.275,144.105 509.858,143.185 510.95,141.935C512.044,140.687 512.65,139.111 512.65,137.491C512.651,136.362 512.354,135.214 511.749,134.167C511.146,133.117 510.24,132.172 509.053,131.417C507.277,130.287 505.233,129.652 503.164,129.284C501.095,128.917 498.99,128.82 497.066,128.82C496.669,128.82 496.281,128.824 495.903,128.831L495.714,128.838C495.703,128.389 495.697,127.939 495.697,127.486C495.696,125.402 495.8,123.28 495.864,121.162C499.823,120.188 503.164,117.938 505.673,114.986C508.354,111.832 510.122,107.896 510.807,103.798C510.986,102.727 511.077,101.649 511.077,100.583C511.076,97.594 510.357,94.675 508.724,92.3C507.908,91.115 506.862,90.074 505.588,89.261C505.281,89.063 504.958,88.881 504.624,88.712C504.531,86.761 502.958,85.18 500.975,85.133C498.899,85.084 497.175,86.728 497.126,88.804C497.076,90.88 498.72,92.603 500.796,92.652C501.975,92.68 503.027,92.151 503.736,91.319C503.867,91.394 504.004,91.463 504.129,91.543C505.566,92.464 506.607,93.743 507.313,95.295C508.017,96.845 508.369,98.666 508.368,100.583C508.368,101.493 508.289,102.424 508.135,103.354C507.532,106.979 505.95,110.482 503.61,113.23C501.331,115.906 498.357,117.857 494.836,118.627C491.357,117.691 488.477,115.602 486.327,112.821C484.12,109.965 482.705,106.391 482.276,102.741C482.196,102.065 482.156,101.391 482.156,100.726C482.154,98.009 482.834,95.47 484.173,93.577C484.843,92.628 485.673,91.832 486.691,91.219C486.865,91.114 487.053,91.022 487.239,90.928C487.907,91.793 488.934,92.371 490.113,92.399C492.189,92.448 493.911,90.805 493.96,88.728C494.01,86.652 492.366,84.929 490.29,84.88C488.305,84.833 486.658,86.339 486.475,88.287C486.065,88.472 485.668,88.672 485.294,88.898C483.261,90.12 481.78,91.918 480.833,93.976C479.883,96.036 479.448,98.357 479.447,100.726C479.447,101.5 479.493,102.28 479.585,103.059C480.074,107.184 481.655,111.199 484.184,114.477C486.443,117.406 489.488,119.737 493.159,120.953C493.097,123.076 492.988,125.266 492.988,127.486C492.988,127.979 492.996,128.474 493.009,128.97C489.373,129.229 485.808,129.802 482.284,130.356C480.429,130.649 478.585,130.932 476.747,131.166L476.747,81.12L514.689,81.12L514.689,148.267L476.747,148.267L476.747,133.896C478.75,133.647 480.736,133.342 482.706,133.032C486.225,132.477 489.702,131.924 493.168,131.673C493.34,133.497 493.655,135.319 494.222,137.114ZM522.827,69.554L522.827,160.91C522.826,162.186 522.317,163.32 521.482,164.159C520.643,164.994 519.508,165.503 518.232,165.505L473.203,165.505C471.928,165.503 470.794,164.994 469.955,164.159C469.12,163.32 468.611,162.186 468.61,160.91L468.61,134.429C468.758,134.43 468.907,134.432 469.056,134.432C470.126,134.432 471.19,134.392 472.246,134.326L472.246,150.517C472.246,151.109 472.487,151.689 472.906,152.108C473.324,152.527 473.905,152.767 474.497,152.767L516.939,152.767C517.531,152.767 518.111,152.527 518.531,152.108C518.948,151.689 519.19,151.109 519.19,150.517L519.19,78.87C519.19,78.277 518.948,77.698 518.531,77.279C518.112,76.859 517.531,76.62 516.939,76.62L474.497,76.62C473.905,76.62 473.324,76.859 472.906,77.278C472.487,77.698 472.246,78.277 472.246,78.87L472.246,131.614C471.183,131.683 470.119,131.724 469.056,131.723C468.907,131.723 468.758,131.721 468.61,131.72L468.61,69.554C468.611,68.278 469.12,67.144 469.955,66.305C470.793,65.47 471.928,64.96 473.203,64.959L518.232,64.959C519.508,64.96 520.643,65.47 521.482,66.305C522.317,67.144 522.826,68.278 522.827,69.554ZM452.861,121.119L452.859,121.173C452.858,123.312 453.253,125.236 454.017,126.908C455.158,129.421 457.135,131.319 459.609,132.544C460.969,133.22 462.482,133.699 464.109,134.007L464.109,160.91C464.108,163.415 465.13,165.703 466.773,167.341C468.411,168.984 470.699,170.006 473.203,170.005L518.232,170.005C520.737,170.006 523.025,168.984 524.664,167.341C526.306,165.703 527.329,163.415 527.328,160.91L527.328,69.554C527.329,67.049 526.307,64.761 524.664,63.123C523.025,61.48 520.737,60.457 518.232,60.459L473.203,60.459C470.699,60.457 468.411,61.48 466.773,63.123C465.13,64.761 464.108,67.049 464.109,69.554L464.109,131.245C462.054,130.793 460.321,130.026 458.993,128.972C457.906,128.109 457.066,127.062 456.481,125.783C455.898,124.504 455.569,122.983 455.568,121.173L455.576,120.979C458.272,120.248 460.292,117.814 460.36,114.884C460.45,111.309 457.615,108.334 454.038,108.252C450.472,108.162 447.49,110.998 447.407,114.574C447.332,117.851 449.711,120.615 452.861,121.119Z" style="fill:rgb(28,181,224);fill-rule:nonzero;"/>
        </g>
    </g>
</svg>
