<?xml version="1.0" encoding="UTF-8" standalone="no"?>
<!DOCTYPE svg PUBLIC "-//W3C//DTD SVG 1.1//EN" "http://www.w3.org/Graphics/SVG/1.1/DTD/svg11.dtd">
<svg width="100%" height="100%" viewBox="0 0 490 553" version="1.1" xmlns="http://www.w3.org/2000/svg" xmlns:xlink="http://www.w3.org/1999/xlink" xml:space="preserve" xmlns:serif="http://www.serif.com/" style="fill-rule:evenodd;clip-rule:evenodd;stroke-linejoin:round;stroke-miterlimit:2;">
    <g transform="matrix(4.16667,0,0,4.16667,-1803.26,-1768.38)">
        <g>
            <path d="M544.069,522.095C543.415,524.308 542.638,526.421 541.752,528.415C541.129,527.852 540.439,527.365 539.687,526.974C540.447,525.214 541.121,523.349 541.697,521.394C543.271,516.065 544.129,510.109 544.128,504.034C544.13,495.317 542.362,486.36 538.471,478.614C535.771,473.243 532.065,468.457 527.209,464.686L527.209,461.616C530.532,463.956 533.394,466.718 535.807,469.79C543.363,479.415 546.599,491.976 546.602,504.034C546.601,510.342 545.714,516.519 544.069,522.095ZM535.112,541.762C531.804,541.762 529.123,539.08 529.123,535.773C529.123,532.833 531.242,530.393 534.035,529.887C534.385,529.823 534.743,529.785 535.112,529.785C536.145,529.785 537.117,530.047 537.966,530.508C538.713,530.914 539.359,531.478 539.871,532.15C540.639,533.157 541.1,534.41 541.1,535.773C541.1,536.382 541.007,536.97 540.838,537.523C540.089,539.977 537.81,541.762 535.112,541.762ZM486.659,528.829C486.66,532.334 485.869,535.749 484.097,538.727C484.001,538.89 483.891,539.045 483.789,539.204C483.287,538.51 482.68,537.911 481.988,537.434C483.486,534.902 484.186,531.955 484.187,528.829C484.187,526.861 483.901,524.827 483.373,522.802C483.197,522.125 482.993,521.451 482.763,520.781C482.531,520.102 482.272,519.427 481.986,518.759L481.906,518.565C480.142,514.521 477.59,510.791 474.472,507.698C473.823,507.055 473.147,506.442 472.45,505.857C471.967,505.451 471.479,505.053 470.975,504.677C470.795,504.544 470.612,504.416 470.429,504.286C465.817,501.006 460.403,499.03 454.592,499.029C454.345,499.029 454.095,499.042 453.847,499.049C453.746,499.052 453.647,499.053 453.546,499.057C453.451,499.108 453.363,499.166 453.27,499.219C448.62,501.832 445.092,505.691 442.699,510.242C440.22,514.959 438.966,520.402 438.966,525.845C438.966,527.364 439.064,528.883 439.259,530.385C439.733,534.044 440.872,537.518 442.613,540.399C444.253,543.116 446.419,545.29 449.068,546.68C448.748,547.47 448.557,548.314 448.525,549.185L448.493,549.171C446.241,548.099 444.298,546.556 442.681,544.694C439.447,540.966 437.493,535.979 436.806,530.703C436.598,529.095 436.493,527.47 436.493,525.845C436.494,520.024 437.828,514.198 440.51,509.092C442.744,504.837 445.939,501.096 450.054,498.305C450.605,497.931 451.175,497.577 451.76,497.238C451.667,495.489 451.681,493.918 451.703,493.021C451.715,492.528 451.729,492.237 451.729,492.237L451.731,492.235C451.849,488.088 452.585,482.194 455.295,476.208C457.97,470.287 462.631,464.297 470.429,459.99L470.429,462.842C469.042,463.678 467.769,464.565 466.609,465.498C460.091,470.747 456.933,477.388 455.431,483.319C454.824,485.721 454.496,487.996 454.331,490.003L454.334,490L454.327,490.036C454.244,491.058 454.204,491.999 454.192,492.857L454.183,492.857L454.19,492.986C454.254,494.31 454.423,495.649 454.558,496.558L454.592,496.557C455.762,496.557 456.915,496.633 458.051,496.774C462.524,497.329 466.712,498.937 470.429,501.302C471.119,501.74 471.794,502.204 472.45,502.693C473.146,503.21 473.817,503.759 474.472,504.327C478.622,507.93 481.963,512.518 484.173,517.575C484.344,517.967 484.503,518.362 484.657,518.759C484.918,519.427 485.152,520.102 485.365,520.781C485.574,521.45 485.761,522.125 485.921,522.802C486.399,524.81 486.659,526.835 486.659,528.829ZM474.244,544.532C474.056,543.852 474.083,543.167 474.269,542.536C474.613,541.366 475.524,540.393 476.785,540.043C477.781,539.767 478.793,539.937 479.617,540.427C480.329,540.849 480.889,541.517 481.183,542.347L481.275,542.584C481.812,544.524 480.675,546.535 478.734,547.072C477.857,547.315 476.972,547.202 476.208,546.842C475.282,546.404 474.539,545.596 474.244,544.532ZM475.68,517.552C474.93,516.797 474.473,515.778 474.472,514.633L474.472,513.282C475.779,514.961 476.927,516.777 477.872,518.685C477.024,518.535 476.269,518.138 475.68,517.552ZM459.479,548.49C459.818,549.712 459.49,550.96 458.719,551.852C458.265,552.377 457.657,552.779 456.938,552.979C455.012,553.514 453.022,552.394 452.465,550.481L452.448,550.438C452.214,549.594 452.313,548.742 452.642,547.998C453.069,547.033 453.894,546.253 454.99,545.949C456.1,545.642 457.223,545.895 458.09,546.52C458.739,546.988 459.248,547.659 459.479,548.49ZM470.429,496.996C468.804,496.103 467.104,495.331 465.335,494.706C462.966,493.867 460.472,493.296 457.899,493.026C457.927,490.688 458.182,487.57 459.028,484.227C459.705,481.547 460.754,478.732 462.34,476.027C463.531,473.997 465.021,472.025 466.908,470.184C467.951,469.168 469.119,468.189 470.429,467.264L470.429,496.996ZM481.781,503.276L481.781,442.969L515.857,442.969L515.857,503.276L481.781,503.276ZM523.166,432.58L523.166,514.633C523.164,515.778 522.708,516.797 521.958,517.552C521.205,518.3 520.185,518.758 519.039,518.759L488.604,518.759C488.294,517.858 487.954,516.967 487.573,516.091C487.351,515.586 487.102,515.092 486.861,514.595L492.014,514.595L492.014,511.721L485.334,511.721C484.439,510.191 483.448,508.721 482.364,507.318L517.879,507.318C518.411,507.318 518.932,507.102 519.307,506.727C519.685,506.35 519.9,505.829 519.9,505.297L519.9,440.948C519.9,440.416 519.685,439.895 519.307,439.518C518.932,439.143 518.411,438.927 517.879,438.927L479.759,438.927C479.227,438.927 478.706,439.143 478.33,439.518C477.953,439.895 477.739,440.416 477.739,440.948L477.739,502.293C476.754,501.389 475.74,500.518 474.665,499.717L474.472,499.578L474.472,432.58C474.473,431.435 474.93,430.415 475.68,429.662C476.433,428.912 477.452,428.455 478.598,428.454L519.039,428.454C520.185,428.455 521.205,428.912 521.958,429.662C522.708,430.415 523.164,431.435 523.166,432.58ZM550.312,504.034C550.31,497.669 549.457,491.17 547.589,484.935C546.188,480.26 544.212,475.731 541.578,471.552C538.037,465.921 533.259,460.933 527.209,457.18L527.209,432.58C527.21,430.331 526.291,428.276 524.817,426.804C523.344,425.329 521.289,424.41 519.039,424.411L478.598,424.411C476.349,424.41 474.294,425.329 472.822,426.804C471.347,428.276 470.428,430.331 470.429,432.58L470.429,455.808C465.867,458.062 462.132,460.858 459.167,463.941C456.724,466.478 454.794,469.199 453.287,471.937C451.027,476.047 449.713,480.188 448.957,483.916C448.201,487.645 448.001,490.969 448,493.506C448,494.121 448.015,494.678 448.033,495.194C446.146,496.469 444.414,497.907 442.879,499.499C439.462,503.043 436.94,507.257 435.273,511.757C433.606,516.259 432.784,521.055 432.783,525.845C432.783,527.629 432.898,529.412 433.127,531.181C433.51,534.121 434.246,536.994 435.359,539.693C437.028,543.734 439.556,547.423 443.074,550.159C444.829,551.522 446.83,552.634 449.028,553.392C449.277,553.477 449.537,553.543 449.792,553.619C451.531,556.204 454.784,557.516 457.951,556.638C461.913,555.54 464.236,551.437 463.137,547.477C462.038,543.515 457.938,541.192 453.975,542.291C452.972,542.569 452.074,543.041 451.311,543.654L451.153,543.589C450.086,543.081 449.115,542.402 448.217,541.55C446.873,540.272 445.704,538.59 444.796,536.596C443.889,534.605 443.248,532.313 442.938,529.908C442.764,528.565 442.676,527.205 442.676,525.845C442.673,520.969 443.808,516.1 445.984,511.968C447.071,509.899 448.412,508.013 449.999,506.367C451.346,504.972 452.879,503.762 454.592,502.739C457.176,502.74 459.662,503.193 462.038,504.032C465.062,505.101 467.906,506.812 470.429,509.005L470.429,514.633C470.428,516.883 471.347,518.936 472.822,520.409C474.294,521.884 476.349,522.802 478.598,522.802L479.519,522.802C480.147,524.865 480.48,526.923 480.477,528.829C480.477,530.119 480.331,531.34 480.048,532.466C479.701,533.832 479.154,535.048 478.396,536.148C477.536,536.074 476.652,536.141 475.772,536.385C471.809,537.482 469.488,541.584 470.586,545.546C471.684,549.508 475.785,551.829 479.747,550.731C483.06,549.813 485.217,546.794 485.197,543.514C486.689,541.777 487.858,539.847 488.681,537.817C489.856,534.933 490.369,531.874 490.369,528.829C490.367,526.809 490.136,524.791 489.721,522.802L519.039,522.802C521.289,522.802 523.344,521.884 524.817,520.409C526.291,518.936 527.21,516.883 527.209,514.633L527.209,469.55C527.6,469.913 527.984,470.282 528.357,470.662C532.485,474.866 535.501,480.081 537.49,485.839C539.478,491.592 540.421,497.871 540.419,504.034C540.42,509.761 539.606,515.381 538.139,520.345C537.56,522.315 536.872,524.174 536.104,525.9C535.778,525.868 535.447,525.851 535.112,525.851C529.631,525.851 525.188,530.293 525.188,535.773C525.188,541.254 529.631,545.696 535.112,545.696C540.592,545.696 545.034,541.254 545.034,535.773C545.034,534.383 544.746,533.06 544.23,531.859C545.583,529.145 546.716,526.223 547.627,523.144C549.379,517.203 550.31,510.69 550.312,504.034Z" style="fill:rgb(16,33,125);fill-rule:nonzero;"/>
            <path d="M498.82,509.452C496.815,509.452 495.191,511.077 495.191,513.081C495.191,515.086 496.815,516.711 498.82,516.711C500.823,516.711 502.448,515.086 502.448,513.081C502.448,511.077 500.823,509.452 498.82,509.452Z" style="fill:rgb(16,33,125);fill-rule:nonzero;"/>
            <rect x="505.836" y="511.721" width="7.208" height="2.874" style="fill:rgb(16,33,125);"/>
            <path d="M487.402,467.773C487.402,467.112 487.667,466.521 488.104,466.084C488.541,465.647 489.132,465.382 489.793,465.382L506.919,465.382C507.58,465.382 508.172,465.647 508.61,466.084C509.045,466.521 509.311,467.112 509.311,467.773L509.311,472.915C508.808,473.468 508.259,473.987 507.557,474.534C507.139,474.859 506.666,475.193 506.122,475.547L506.122,472.311L506.116,472.192L506.054,471.552L506.042,471.492L506.033,471.423L506.017,471.364L505.984,471.258L505.963,471.193L505.936,471.142L505.881,471.04L505.85,470.984L505.817,470.941L505.742,470.852L505.698,470.799L505.667,470.774L505.661,470.768L505.573,470.695L505.509,470.644L505.501,470.641L505.478,470.628L505.374,470.572L505.299,470.533L505.267,470.522L505.151,470.487L505.07,470.463L505.038,470.459L504.914,470.447L504.824,470.439L504.796,470.441L504.768,470.44L504.675,470.454L504.579,470.464L504.552,470.473L504.35,470.535L504.325,470.547L504.222,470.603L504.142,470.647L504.141,470.648L504.122,470.662L504.032,470.736L504.003,470.762L503.953,470.804L503.945,470.812L503.871,470.902L503.801,470.989L503.797,470.996L503.741,471.1L503.69,471.199L503.687,471.205L503.648,471.333L503.62,471.427L503.618,471.433L503.61,471.531L503.596,471.671L503.596,476.852C501.904,477.51 500.068,477.873 498.142,477.873C496.397,477.873 494.733,477.56 493.175,477.017L493.174,471.671L493.165,471.586L493.15,471.429L493.115,471.313L493.079,471.198L493.006,471.059L492.968,470.988L492.816,470.803L492.629,470.647L492.597,470.631L492.42,470.535L492.301,470.498L492.19,470.464L491.945,470.439L491.699,470.463L491.588,470.497L491.469,470.533L491.29,470.629L491.26,470.645L491.072,470.799L490.919,470.984L490.881,471.055L490.807,471.193L490.769,471.314L490.736,471.423L490.718,471.593L490.71,471.666L490.71,471.677L490.708,472.19L490.708,475.801C490.103,475.466 489.579,475.143 489.127,474.826C488.441,474.345 487.901,473.876 487.402,473.372L487.402,467.773ZM496.095,459.87C495.958,459.766 495.819,459.663 495.697,459.541C495.005,458.847 494.581,457.902 494.58,456.852C494.58,456.639 494.61,456.434 494.643,456.231C494.775,455.433 495.145,454.716 495.697,454.163C495.886,453.974 496.097,453.81 496.322,453.664C496.917,453.276 497.621,453.047 498.385,453.047C499.117,453.047 499.792,453.264 500.372,453.622C500.624,453.778 500.864,453.953 501.073,454.163C501.604,454.695 501.972,455.376 502.117,456.138C502.161,456.369 502.19,456.606 502.19,456.852C502.189,457.903 501.765,458.848 501.073,459.541C500.972,459.643 500.854,459.725 500.741,459.814C500.09,460.335 499.281,460.656 498.385,460.656C497.52,460.656 496.736,460.357 496.095,459.87ZM487.715,476.845C488.502,477.395 489.428,477.937 490.546,478.5C490.655,478.611 490.706,478.643 490.748,478.674L490.89,478.761C490.994,478.816 491.068,478.848 491.166,478.892C491.262,478.934 491.367,478.978 491.475,479.022L491.475,479.023C493.531,479.868 495.784,480.337 498.142,480.337C500.532,480.337 502.812,479.849 504.89,478.98C505.078,478.972 505.266,478.927 505.435,478.831C506.937,477.987 508.102,477.231 509.07,476.479C510.035,475.729 510.802,474.979 511.48,474.186C511.671,473.963 511.775,473.681 511.775,473.386L511.775,467.773C511.773,465.093 509.601,462.92 506.919,462.918L499.938,462.918C501.594,462.493 502.985,461.414 503.817,459.969C504.345,459.05 504.653,457.987 504.654,456.852C504.654,456.669 504.641,456.488 504.625,456.31C504.546,455.393 504.271,454.533 503.839,453.771C502.762,451.871 500.725,450.585 498.385,450.583C496.006,450.585 493.937,451.912 492.874,453.865C492.457,454.633 492.202,455.499 492.139,456.417C492.128,456.561 492.116,456.705 492.116,456.852C492.117,458.026 492.448,459.122 493.011,460.062C493.849,461.461 495.213,462.503 496.832,462.918L489.793,462.918C487.112,462.92 484.94,465.093 484.938,467.773L484.938,473.871C484.938,474.181 485.055,474.48 485.266,474.708C485.954,475.453 486.732,476.158 487.715,476.845Z" style="fill:rgb(16,33,125);fill-rule:nonzero;"/>
        </g>
    </g>
</svg>
