<?xml version="1.0" encoding="UTF-8" standalone="no"?>
<!DOCTYPE svg PUBLIC "-//W3C//DTD SVG 1.1//EN" "http://www.w3.org/Graphics/SVG/1.1/DTD/svg11.dtd">
<svg width="100%" height="100%" viewBox="0 0 495 487" version="1.1" xmlns="http://www.w3.org/2000/svg" xmlns:xlink="http://www.w3.org/1999/xlink" xml:space="preserve" xmlns:serif="http://www.serif.com/" style="fill-rule:evenodd;clip-rule:evenodd;stroke-linejoin:round;stroke-miterlimit:2;">
    <g transform="matrix(4.16667,0,0,4.16667,-1711.11,-994.829)">
        <g>
            <path d="M523.45,308.602L522.904,308.684L521.142,308.945L519.763,309.149C519.662,309.164 519.563,309.172 519.464,309.172L519.379,309.164C518.924,309.144 518.495,308.976 518.156,308.686C517.799,308.377 517.552,307.958 517.476,307.452C517.461,307.35 517.453,307.25 517.453,307.152C517.453,306.665 517.632,306.206 517.939,305.847C518.179,305.567 518.487,305.359 518.849,305.243C518.953,305.21 519.06,305.182 519.172,305.164L519.379,305.134L520.589,304.954L521.142,304.872L522.331,304.696L522.861,304.617L522.904,304.614L523.096,304.601L523.159,304.596C523.406,304.596 523.643,304.641 523.865,304.725C524.083,304.808 524.287,304.928 524.466,305.081C524.796,305.364 525.025,305.745 525.119,306.197L525.149,306.315C525.163,306.417 525.17,306.517 525.17,306.615C525.17,307.102 524.992,307.561 524.686,307.921C524.591,308.03 524.482,308.126 524.367,308.213C524.107,308.41 523.802,308.55 523.45,308.602L523.709,310.346L523.45,308.602ZM524.514,274.704C524.166,275.131 523.688,275.438 523.104,275.558L522.904,275.598L521.142,275.954L519.379,276.31L519.044,276.378C518.88,276.411 518.718,276.427 518.559,276.427C517.995,276.427 517.458,276.228 517.031,275.883C516.835,275.724 516.669,275.535 516.531,275.324C516.366,275.073 516.242,274.791 516.177,274.475C516.143,274.309 516.128,274.146 516.128,273.987C516.128,273.511 516.278,273.057 516.531,272.668L516.672,272.459C517.02,272.032 517.498,271.725 518.081,271.606L518.872,271.446L519.379,271.344L520.635,271.09L521.142,270.988L522.141,270.786C522.306,270.752 522.468,270.737 522.627,270.737C522.721,270.737 522.812,270.75 522.904,270.761C523.365,270.814 523.799,270.993 524.156,271.281C524.43,271.504 524.648,271.787 524.805,272.112C524.893,272.292 524.966,272.481 525.009,272.69C525.042,272.854 525.058,273.016 525.058,273.176C525.058,273.426 525.013,273.669 524.939,273.902C524.847,274.193 524.705,274.467 524.514,274.704ZM524.555,286.261C524.206,286.687 523.729,286.995 523.146,287.114L523.349,288.122L523.469,288.715L523.349,288.122L523.146,287.114L522.904,287.163L521.142,287.518L519.379,287.875L519.086,287.934C518.921,287.967 518.758,287.983 518.599,287.983C518.036,287.983 517.499,287.785 517.072,287.439C516.859,287.266 516.675,287.06 516.531,286.824C516.385,286.588 516.279,286.323 516.219,286.031C516.185,285.865 516.169,285.703 516.169,285.543C516.169,285.092 516.302,284.661 516.531,284.286C516.586,284.192 516.645,284.101 516.714,284.016C517.062,283.588 517.539,283.281 518.122,283.163L518.831,283.019L519.379,282.909L520.593,282.663L521.142,282.553L522.182,282.342C522.347,282.309 522.508,282.293 522.668,282.293L522.904,282.313C523.379,282.361 523.828,282.54 524.197,282.837C524.534,283.112 524.792,283.471 524.947,283.896C524.988,284.009 525.026,284.124 525.05,284.246C525.083,284.411 525.099,284.573 525.099,284.732C525.099,285.056 525.027,285.368 524.906,285.659C524.816,285.874 524.702,286.079 524.555,286.261ZM513.005,271.852C512.747,272.522 512.604,273.243 512.604,273.987C512.604,274.379 512.643,274.777 512.723,275.173C512.789,275.507 512.887,275.829 513.005,276.137L513.005,283.51C512.771,284.151 512.645,284.837 512.645,285.543C512.645,285.935 512.684,286.333 512.763,286.729C512.823,287.021 512.906,287.301 513.005,287.574L513.005,307.528L483.29,307.528L483.29,254.94L513.005,254.94L513.005,271.852ZM516.531,279.593C516.731,279.666 516.937,279.726 517.146,279.777C516.935,279.83 516.729,279.892 516.531,279.966L516.531,279.593ZM518.656,301.678C517.878,301.792 517.161,302.071 516.531,302.467L516.531,300.588C517.292,300.975 518.143,301.199 519.031,301.226L519.213,301.234L519.379,301.222L519.379,301.57L518.672,301.675L518.656,301.678ZM525.163,296.251C524.791,296.685 524.281,296.984 523.672,297.075L522.904,297.189L521.142,297.45L519.575,297.682L519.379,297.697L519.213,297.709C518.623,297.709 518.068,297.494 517.635,297.123C517.201,296.75 516.901,296.241 516.81,295.631C516.792,295.509 516.783,295.389 516.783,295.27C516.783,294.68 516.999,294.125 517.37,293.691C517.742,293.258 518.25,292.958 518.862,292.867L518.945,292.855L519.379,292.79L521.142,292.529L521.349,292.498L522.904,292.268L522.958,292.26C523.08,292.241 523.201,292.233 523.32,292.233C523.909,292.232 524.465,292.448 524.899,292.819L525.139,293.064L525.216,293.15L525.253,293.206C525.491,293.519 525.659,293.889 525.723,294.311C525.741,294.433 525.749,294.554 525.749,294.673C525.749,294.791 525.735,294.907 525.718,295.022C525.651,295.48 525.459,295.905 525.163,296.251ZM523.722,278.61L523.721,278.61L523.453,277.285L523.722,278.61ZM476.917,245.882C476.917,244.882 477.317,243.994 477.971,243.337C478.627,242.684 479.516,242.285 480.516,242.284L515.781,242.284C516.781,242.285 517.668,242.684 518.325,243.337C518.979,243.994 519.378,244.882 519.379,245.882L519.379,267.747L518.909,267.843L517.383,268.151C517.089,268.21 516.806,268.295 516.531,268.395L516.531,253.178C516.531,252.714 516.341,252.26 516.013,251.932C515.685,251.603 515.232,251.415 514.768,251.415L481.528,251.415C481.064,251.415 480.61,251.603 480.281,251.932C479.953,252.26 479.766,252.714 479.766,253.178L479.766,309.291C479.766,309.755 479.953,310.209 480.281,310.537C480.61,310.865 481.064,311.053 481.528,311.053L514.768,311.053C514.99,311.053 515.21,311.008 515.414,310.926C515.559,311.08 515.706,311.228 515.866,311.364C516.823,312.183 518.057,312.672 519.379,312.692L519.379,317.431C519.378,318.43 518.979,319.318 518.325,319.975C517.668,320.629 516.781,321.027 515.781,321.028L480.516,321.028C479.699,321.028 478.965,320.752 478.363,320.298C478.228,320.196 478.091,320.095 477.971,319.975C477.317,319.318 476.917,318.43 476.917,317.431L476.917,264.795C477.006,264.662 477.083,264.519 477.135,264.359L477.135,264.358C477.168,264.256 477.195,264.16 477.226,264.059C478.249,260.768 478.679,258.019 478.68,255.707C478.681,253.564 478.31,251.792 477.713,250.354C477.479,249.787 477.208,249.278 476.917,248.817L476.917,245.882ZM427.949,326.517C428.897,325.797 429.651,325.216 430.186,324.739C435.076,320.361 440.24,315.958 444.727,310.891C448.985,306.082 451.868,302.309 453.729,299.671C453.919,301.513 454.292,303.571 455.018,305.595C455.644,307.329 456.533,309.042 457.826,310.518C459.115,311.992 460.827,313.216 462.96,313.899C463.886,314.198 464.879,313.689 465.178,312.764C465.477,311.837 464.968,310.844 464.042,310.545C463.454,310.354 462.938,310.101 462.454,309.816C461.698,309.373 461.043,308.836 460.477,308.193C459.087,306.618 458.201,304.435 457.699,302.209C457.325,300.563 457.159,298.91 457.099,297.513C457.077,297.024 457.069,296.565 457.069,296.15C457.069,295.427 457.094,294.833 457.118,294.427C457.13,294.223 457.143,294.066 457.152,293.963L457.161,293.854C457.592,291.049 458.044,287.745 458.601,284.839C458.88,283.379 459.187,282.021 459.518,280.904C459.843,279.789 460.217,278.906 460.504,278.477C460.897,277.876 461.316,277.135 461.772,276.268C463.357,273.246 465.375,268.689 467.073,264.619C467.313,264.042 467.543,263.481 467.768,262.931L467.559,262.907L467.579,262.713C467.576,262.51 467.655,262.115 467.844,261.626C468.121,260.889 468.618,259.965 469.121,258.993C469.494,258.262 469.876,257.507 470.159,256.695L470.17,256.662C470.262,256.396 470.343,256.125 470.409,255.846C470.552,255.223 470.676,254.425 470.827,253.514C471.051,252.16 471.33,250.582 471.667,249.461C471.743,249.198 471.826,248.964 471.904,248.77C472.282,248.972 472.763,249.291 473.225,249.778L473.392,249.971C473.806,250.445 474.208,251.053 474.531,251.888C474.711,252.361 474.867,252.905 474.978,253.535C474.994,253.629 475.002,253.739 475.016,253.836C475.05,254.066 475.085,254.293 475.107,254.545C475.118,254.687 475.118,254.85 475.125,255C475.137,255.229 475.155,255.451 475.155,255.698L475.155,255.723C475.155,255.86 475.148,256.006 475.144,256.149C475.141,256.26 475.141,256.366 475.136,256.48C475.127,256.65 475.113,256.831 475.099,257.008C475.092,257.101 475.088,257.187 475.079,257.282C475.058,257.519 475.029,257.767 474.996,258.018L474.983,258.137C474.785,259.613 474.406,261.321 473.778,263.287L473.769,263.327C473.74,263.424 473.718,263.522 473.707,263.62L473.706,263.62L473.392,263.583L473.392,266.952C473.131,268.746 472.743,271.02 472.383,273.196C472.139,274.672 471.906,276.108 471.734,277.347C471.647,277.967 471.574,278.538 471.523,279.048C471.472,279.56 471.44,280.004 471.439,280.412C471.439,280.948 471.528,281.451 471.655,281.916C471.88,282.733 472.2,283.458 472.542,284.326C472.811,285.004 473.103,285.778 473.392,286.717L473.392,317.431C473.393,321.365 476.58,324.553 480.516,324.554L486.101,324.554C485.161,325.06 484.257,325.548 483.467,325.977C482.777,326.352 482.17,326.685 481.692,326.951C481.451,327.085 481.243,327.201 481.071,327.301C480.896,327.4 480.761,327.479 480.642,327.554C480.578,327.595 480.371,327.708 480.091,327.844C479.091,328.33 477.136,329.147 474.714,330.068C472.353,330.968 469.529,331.977 466.615,332.93C466.289,332.945 465.775,332.994 465.135,333.147C464.988,332.37 464.818,331.608 464.628,330.831C464.246,329.272 463.928,327.344 462.731,326.206C462.594,326.076 462.448,325.948 462.275,325.875C461.856,325.698 461.346,325.885 461.055,326.233C460.22,327.232 461.09,330.034 461.09,331.293C461.09,332.735 461.01,334.261 460.82,335.585L460.697,335.702C459.852,336.586 459.087,337.74 458.517,339.191C458.098,340.261 457.723,341.527 457.307,342.879C456.688,344.9 455.975,347.102 455.074,348.83C454.628,349.694 454.137,350.433 453.633,350.972C453.126,351.516 452.627,351.852 452.114,352.027C451.576,352.209 451.192,352.628 451.021,353.126C450.898,353.482 450.881,353.878 451.012,354.263C451.324,355.185 452.325,355.678 453.247,355.364C454.035,355.098 454.74,354.683 455.353,354.183C456.427,353.304 457.241,352.184 457.921,350.977C458.936,349.165 459.656,347.126 460.263,345.234C460.865,343.349 461.358,341.589 461.796,340.483C462.213,339.43 462.722,338.687 463.247,338.136C464.033,337.311 464.882,336.897 465.585,336.676C466.284,336.456 466.826,336.446 466.876,336.446L466.876,336.445C467.078,336.45 467.274,336.424 467.467,336.36C470.964,335.222 474.331,334.005 477.001,332.965C478.337,332.445 479.497,331.97 480.422,331.566C480.884,331.365 481.287,331.181 481.63,331.015C481.976,330.846 482.252,330.703 482.51,330.543C482.552,330.517 482.667,330.448 482.821,330.36C483.406,330.026 484.566,329.39 485.954,328.638C488.039,327.509 490.656,326.107 492.75,324.988C493.032,324.838 493.304,324.693 493.565,324.554L515.781,324.554C519.715,324.553 522.903,321.365 522.904,317.431L522.904,312.247L523.966,312.09C525.337,311.888 526.53,311.189 527.364,310.213C528.199,309.236 528.696,307.969 528.696,306.615C528.696,306.394 528.673,306.17 528.646,305.946L528.646,305.889L528.635,305.799L528.634,305.793C528.623,305.711 528.602,305.595 528.567,305.447C528.531,305.296 528.48,305.117 528.405,304.912C528.084,303.919 527.515,303.049 526.758,302.402C525.895,301.663 524.803,301.191 523.625,301.092C523.393,301.035 523.154,300.985 522.904,300.941L522.904,300.752L524.189,300.562C525.663,300.345 526.945,299.594 527.842,298.542C528.741,297.492 529.275,296.128 529.275,294.673C529.275,294.382 529.253,294.089 529.21,293.794L529.163,293.559C529.167,293.386 529.155,293.213 529.107,293.044C529.068,292.914 528.86,292.229 528.282,291.38L528.209,291.269L528.138,291.175C528.055,291.061 527.966,290.945 527.869,290.828C527.726,290.654 527.571,290.478 527.394,290.301C527.094,289.999 526.738,289.7 526.332,289.418C526.69,289.14 527.015,288.826 527.295,288.478C528.135,287.44 528.623,286.125 528.624,284.732C528.624,284.396 528.589,284.057 528.531,283.717C528.519,283.602 528.473,283.232 528.294,282.71C528.027,281.919 527.421,280.748 526.161,279.799C525.676,279.433 525.096,279.106 524.428,278.847C525.567,278.485 526.543,277.802 527.254,276.921C528.093,275.884 528.582,274.569 528.582,273.176C528.582,272.82 528.546,272.459 528.48,272.1L528.48,272.081L528.466,272.009L528.464,271.991L528.462,271.983C528.394,271.62 528.129,270.426 527.112,269.158C526.546,268.458 525.735,267.754 524.65,267.247C524.128,267.002 523.544,266.808 522.904,266.668L522.904,245.882C522.903,241.947 519.715,238.76 515.781,238.759L480.516,238.759C476.683,238.76 473.569,241.786 473.407,245.579C473.048,245.396 472.738,245.272 472.496,245.188L472.279,245.116C472.124,245.069 472.015,245.042 471.973,245.032L471.906,245.019C471.766,244.993 471.619,244.979 471.472,244.979C471.074,244.978 470.683,245.085 470.371,245.246C469.781,245.555 469.448,245.968 469.189,246.355C468.747,247.042 468.492,247.77 468.256,248.567C467.912,249.755 467.666,251.084 467.46,252.282C467.359,252.88 467.268,253.443 467.187,253.925C467.106,254.405 467.031,254.81 466.975,255.053L466.928,255.224L466.858,255.453C466.755,255.758 466.611,256.11 466.429,256.492C466.03,257.341 465.48,258.31 464.998,259.327C464.758,259.838 464.533,260.363 464.36,260.916C464.187,261.47 464.059,262.055 464.055,262.694C463.186,264.791 462.216,267.056 461.264,269.172C460.541,270.777 459.83,272.294 459.188,273.579C458.548,274.861 457.966,275.92 457.554,276.548C456.945,277.492 456.526,278.611 456.138,279.903C455.568,281.835 455.119,284.145 454.723,286.511C454.344,288.776 454.019,291.08 453.71,293.098L453.441,293.639C453.346,293.813 450.455,299.102 442.088,308.555C437.823,313.376 432.768,317.701 427.836,322.112C427.567,322.354 427.07,322.752 426.446,323.23C425.348,324.073 423.84,325.189 422.202,326.444C419.742,328.331 416.99,330.527 414.788,332.689C413.687,333.775 412.721,334.849 411.983,335.93C411.614,336.472 411.3,337.018 411.065,337.592C410.831,338.166 410.669,338.777 410.667,339.445C410.667,339.733 410.699,340.03 410.773,340.326C411.006,341.271 411.961,341.848 412.906,341.614C413.509,341.465 413.959,341.02 414.148,340.475C414.254,340.164 414.279,339.822 414.195,339.479L414.192,339.445C414.183,339.35 414.263,338.965 414.566,338.44C415.08,337.516 416.175,336.237 417.551,334.921C419.616,332.932 422.302,330.801 424.69,328.979C425.884,328.068 427.005,327.231 427.949,326.517Z" style="fill:rgb(16,33,125);fill-rule:nonzero;"/>
            <path d="M498.148,319.242C499.896,319.242 501.313,317.826 501.313,316.078C501.313,314.331 499.896,312.914 498.148,312.914C496.401,312.914 494.985,314.331 494.985,316.078C494.985,317.826 496.401,319.242 498.148,319.242Z" style="fill:rgb(16,33,125);fill-rule:nonzero;"/>
            <rect x="485.929" y="314.892" width="6.286" height="2.505" style="fill:rgb(16,33,125);"/>
            <rect x="504.267" y="314.892" width="6.286" height="2.505" style="fill:rgb(16,33,125);"/>
            <path d="M494.255,289.495L502.041,289.495L502.041,282.7L508.835,282.7L508.835,274.914L502.041,274.914L502.041,268.12L494.255,268.12L494.255,274.914L487.46,274.914L487.46,282.7L494.255,282.7L494.255,289.495Z" style="fill:rgb(16,33,125);fill-rule:nonzero;"/>
        </g>
    </g>
</svg>
