<?xml version="1.0" encoding="UTF-8" standalone="no"?>
<!DOCTYPE svg PUBLIC "-//W3C//DTD SVG 1.1//EN" "http://www.w3.org/Graphics/SVG/1.1/DTD/svg11.dtd">
<svg width="100%" height="100%" viewBox="0 0 471 528" version="1.1" xmlns="http://www.w3.org/2000/svg" xmlns:xlink="http://www.w3.org/1999/xlink" xml:space="preserve" xmlns:serif="http://www.serif.com/" style="fill-rule:evenodd;clip-rule:evenodd;stroke-linejoin:round;stroke-miterlimit:2;">
    <g transform="matrix(4.16667,0,0,4.16667,-326.242,-1780.72)">
        <g>
            <path d="M135.338,431.867C139.025,431.867 142.013,434.856 142.013,438.542C142.013,442.227 139.025,445.216 135.338,445.216C131.653,445.216 128.664,442.227 128.664,438.542C128.664,434.856 131.653,431.867 135.338,431.867ZM124.781,489.532L124.781,548.029C124.78,548.551 124.575,549.005 124.235,549.349C123.891,549.689 123.437,549.893 122.915,549.894L84.218,549.894C83.696,549.893 83.242,549.689 82.898,549.349C82.557,549.005 82.353,548.551 82.352,548.029L82.352,489.532C82.353,489.011 82.557,488.558 82.898,488.214C83.242,487.873 83.696,487.668 84.218,487.667L122.915,487.667C123.437,487.668 123.891,487.873 124.235,488.214C124.575,488.558 124.78,489.011 124.781,489.532ZM182.389,452.174L182.34,452.239C180.423,454.79 177.458,456.162 174.424,456.162C172.91,456.162 171.38,455.821 169.955,455.114L176.279,458.25L176.212,458.301C174.435,459.636 172.333,460.291 170.237,460.291C167.761,460.291 165.292,459.377 163.373,457.587L168.877,462.722L168.81,462.754C167.684,463.291 166.494,463.545 165.319,463.545C162.439,463.545 159.65,462.016 158.135,459.363L161.646,465.515L161.582,465.534C160.989,465.716 160.389,465.802 159.8,465.802C156.974,465.802 154.392,463.822 153.75,460.908L155.112,467.097L155.048,467.108C154.733,467.166 154.419,467.193 154.112,467.193C151.205,467.193 148.777,464.72 148.936,461.69L149.048,459.542L148.608,467.937L148.556,467.941C148.434,467.951 148.313,467.955 148.193,467.955C145.067,467.955 142.791,464.861 143.808,461.829L144.397,460.075L142.358,466.151C141.983,467.272 140.933,468.029 139.762,468.029L139.601,468.024C139.074,467.992 138.638,467.835 138.258,467.598L138.014,483.803C138.899,483.516 139.781,483.221 140.665,482.939C143.606,482.004 146.647,481.035 149.573,479.918C149.764,479.845 149.963,479.775 150.168,479.704C150.793,479.485 151.442,479.262 151.83,478.902C152.188,478.575 151.991,478.035 151.775,477.753C151.61,477.54 151.303,477.282 150.498,477.282C150.3,477.282 150.073,477.298 149.81,477.333C149.205,477.416 148.608,477.54 148.013,477.664C147.461,477.778 146.911,477.892 146.356,477.977C145.505,478.105 144.637,478.279 143.771,478.279C143.606,478.279 143.44,478.273 143.275,478.259C142.636,478.203 141.993,478.009 141.492,477.607C140.991,477.206 140.66,476.619 140.485,476.001C140.258,475.204 140.199,474.286 140.426,473.482C141.126,470.997 143.682,470.194 146.004,470.194C146.096,470.194 146.188,470.196 146.279,470.198C146.603,470.207 146.923,470.216 147.234,470.216C149.351,470.221 151.987,470.227 154.256,471.275C156.448,472.288 158.095,474.225 158.548,476.33C159.007,478.449 158.123,480.61 156.06,482.414C154.363,483.895 152.296,484.759 150.89,485.281C149.151,485.926 147.351,486.447 145.608,486.952L145.192,487.072C144.411,487.299 143.629,487.519 142.847,487.74C144.505,488.591 146.262,489.659 147.616,491.2C149.373,493.201 149.892,495.75 149.005,498.02C148.077,500.393 145.965,501.973 144.455,502.954C143.147,503.805 141.775,504.544 140.382,505.224C142.089,506.101 144.062,507.174 145.625,508.709C147.305,510.354 147.996,512.371 147.62,514.536C146.978,518.259 143.826,520.716 140.519,522.815C139.934,523.187 139.338,523.547 138.744,523.906C138.559,524.018 138.372,524.138 138.186,524.25C138.318,524.366 138.455,524.476 138.583,524.597C140.45,526.376 141.436,528.328 141.519,530.395C141.606,532.664 140.797,534.986 139.298,536.768C138.779,537.381 138.161,537.956 137.392,538.54C137.813,538.975 138.162,539.471 138.336,540.09C138.704,541.401 138.204,542.677 137.613,543.858C137.465,544.152 137.275,544.445 137.099,544.739L137.078,546.103C137.063,547.269 136.299,548.184 135.338,548.184C134.382,548.184 133.618,547.269 133.599,546.103L133.578,544.739C133.403,544.445 133.214,544.153 133.067,543.858C132.473,542.677 131.974,541.401 132.341,540.09C132.517,539.461 132.873,538.962 133.282,538.538C132.514,537.954 131.898,537.38 131.381,536.768C129.881,534.986 129.072,532.664 129.159,530.395C129.241,528.328 130.228,526.376 132.095,524.597C132.223,524.476 132.36,524.367 132.491,524.25C132.304,524.136 132.115,524.016 131.93,523.903C131.336,523.545 130.744,523.185 130.159,522.815C129.713,522.531 129.27,522.242 128.835,521.943L128.835,517.278C130.114,518.591 131.618,519.626 133.217,520.667L133.035,508.579C132.683,508.746 132.321,508.893 131.972,509.066C131.078,509.507 130.033,510.049 129.043,510.718L128.835,510.861L128.835,506.005C129.332,505.727 129.823,505.466 130.294,505.224C129.802,504.983 129.32,504.725 128.835,504.468L128.835,499.243C130.114,500.12 131.534,500.85 132.929,501.552L132.77,490.925C132.365,491.08 131.953,491.224 131.553,491.39C130.623,491.774 129.69,492.192 128.835,492.68L128.835,489.532C128.834,486.263 126.186,483.614 122.915,483.613L116.267,483.613C115.702,483.266 115.142,482.873 114.617,482.416C112.555,480.611 111.67,478.45 112.129,476.33C112.582,474.225 114.229,472.288 116.423,471.275C118.69,470.227 121.325,470.221 123.445,470.216C123.808,470.215 124.169,470.206 124.53,470.206C125.258,470.206 125.98,470.241 126.697,470.445C127.542,470.686 128.345,471.14 128.901,471.821C129.903,473.048 130.035,475.018 129.423,476.445C128.897,477.67 127.812,478.256 126.506,478.256L126.48,478.256C125.224,478.248 123.893,477.92 122.667,477.664C122.07,477.54 121.473,477.416 120.866,477.335C120.597,477.297 120.365,477.28 120.164,477.28C119.369,477.28 119.067,477.541 118.904,477.753C118.685,478.035 118.49,478.575 118.846,478.902C119.236,479.262 119.884,479.485 120.509,479.704C120.714,479.775 120.913,479.845 121.105,479.918C124.031,481.035 127.072,482.004 130.011,482.939C130.897,483.221 131.779,483.516 132.662,483.802L132.419,467.599C132.039,467.835 131.604,467.992 131.126,468.021L130.953,468.027C129.743,468.027 128.697,467.271 128.321,466.151L126.871,461.829C127.888,464.861 125.614,467.955 122.487,467.955C122.366,467.955 122.245,467.951 122.122,467.941L122.072,467.937L121.743,461.69C121.903,464.721 119.474,467.193 116.568,467.193C116.26,467.193 115.947,467.166 115.631,467.108L115.568,467.097L116.929,460.909C116.286,463.823 113.705,465.802 110.879,465.802C110.29,465.802 109.691,465.715 109.096,465.534L109.033,465.515L112.544,459.361C111.03,462.016 108.241,463.545 105.361,463.545C104.186,463.545 102.995,463.291 101.869,462.754L101.802,462.722L109.674,455.377L107.306,457.587C105.387,459.377 102.918,460.291 100.443,460.291C98.346,460.291 96.244,459.636 94.467,458.301L94.4,458.25L100.724,455.115C99.297,455.821 97.768,456.162 96.255,456.162C93.221,456.162 90.256,454.79 88.34,452.239L88.29,452.174L94.429,450.9C93.853,451.019 93.277,451.077 92.707,451.077C89.098,451.077 85.776,448.765 84.695,445.196L84.673,445.122L89.416,445.122C86.361,445.122 83.859,442.623 83.855,439.569C83.855,439.248 83.862,438.929 83.882,438.611L96.709,438.611L112.223,436.522C115.197,436.522 117.949,438.391 119.545,440.903C121.607,444.157 125.698,448.419 133.398,449.891L133.399,449.951C133.999,450.096 134.624,450.168 135.27,450.168C135.919,450.168 136.591,450.094 137.281,449.947L137.282,449.891C144.981,448.419 149.073,444.157 151.134,440.903C152.73,438.391 155.483,436.522 158.456,436.522L173.97,438.611L186.797,438.611C186.817,438.929 186.823,439.248 186.823,439.569C186.82,442.623 184.318,445.122 181.263,445.122L186.006,445.122L185.984,445.196C184.903,448.765 181.581,451.077 177.972,451.077C177.403,451.077 176.825,451.019 176.249,450.9L182.389,452.174ZM191.284,438.331C191.136,435.961 189.171,434.115 186.797,434.115L174.273,434.115L159.056,432.066C158.858,432.04 158.656,432.026 158.456,432.026C154.131,432.026 149.871,434.505 147.339,438.495C147.083,438.899 146.781,439.322 146.44,439.752C146.483,439.354 146.508,438.951 146.508,438.542C146.508,432.383 141.497,427.372 135.338,427.372C129.179,427.372 124.169,432.383 124.169,438.542C124.169,438.95 124.195,439.352 124.238,439.75C123.898,439.321 123.597,438.899 123.342,438.497C120.808,434.505 116.548,432.026 112.223,432.026C112.023,432.026 111.823,432.04 111.623,432.066L96.406,434.115L83.882,434.115C81.509,434.115 79.545,435.96 79.394,438.328C79.371,438.708 79.359,439.114 79.359,439.569C79.361,441.119 79.716,442.588 80.346,443.899C80.119,444.706 80.118,445.572 80.362,446.396L80.392,446.5C81.039,448.634 82.235,450.511 83.798,451.995C83.758,453.002 84.057,454.01 84.673,454.843L84.724,454.912C86.126,456.777 87.953,458.25 90.014,459.236C90.244,460.258 90.827,461.183 91.685,461.833L91.774,461.9C93.541,463.227 95.55,464.116 97.684,464.525C98.112,465.502 98.88,466.309 99.865,466.778L99.932,466.81C101.63,467.621 103.44,468.034 105.315,468.041C105.885,468.88 106.729,469.511 107.717,469.813L107.78,469.833C108.624,470.09 109.488,470.24 110.359,470.284C109.057,471.753 108.139,473.504 107.735,475.383C107.117,478.233 107.81,481.121 109.641,483.613L84.218,483.613C80.947,483.614 78.299,486.263 78.298,489.532L78.298,548.029C78.299,551.3 80.947,553.947 84.218,553.949L122.915,553.949C126.186,553.947 128.834,551.3 128.835,548.029L128.835,545.431C128.906,545.581 128.978,545.733 129.048,545.876L129.101,545.977L129.104,546.171C129.164,549.824 131.903,552.68 135.338,552.68C138.785,552.68 141.525,549.817 141.573,546.165L141.576,545.98L141.626,545.884C142.452,544.234 143.299,542.07 142.824,539.558C144.981,536.939 146.139,533.548 146.01,530.223C145.945,528.556 145.515,526.933 144.745,525.399C148.106,523.029 151.249,519.937 152.05,515.3C152.681,511.673 151.518,508.189 148.773,505.498L148.711,505.438C150.226,504.233 152.151,502.32 153.192,499.657C154.495,496.32 154.062,492.684 152.065,489.638C152.194,489.591 152.323,489.544 152.452,489.496C154.194,488.851 156.767,487.765 159.017,485.8C162.322,482.911 163.751,479.112 162.943,475.378C162.538,473.502 161.621,471.753 160.32,470.284C161.19,470.24 162.054,470.09 162.894,469.834L162.958,469.814C163.948,469.512 164.793,468.881 165.365,468.041C167.24,468.034 169.049,467.621 170.746,466.81L170.815,466.778C171.799,466.309 172.567,465.502 172.994,464.525C175.13,464.115 177.14,463.226 178.912,461.894L178.98,461.844C179.838,461.193 180.424,460.266 180.656,459.242C182.718,458.259 184.541,456.793 185.934,454.939L185.964,454.899C186.592,454.06 186.904,453.034 186.865,452.01C188.436,450.522 189.638,448.641 190.286,446.5L190.316,446.401C190.561,445.575 190.561,444.709 190.333,443.901C190.963,442.591 191.317,441.124 191.32,439.576C191.32,439.118 191.308,438.713 191.284,438.331Z" style="fill:rgb(16,33,125);fill-rule:nonzero;"/>
            <path d="M105.626,452.684L100.724,455.115L100.726,455.114L105.626,452.684Z" style="fill:rgb(16,33,125);fill-rule:nonzero;"/>
            <path d="M169.953,455.114L169.955,455.114L165.053,452.684L169.953,455.114Z" style="fill:rgb(16,33,125);fill-rule:nonzero;"/>
            <path d="M113.715,457.31L112.544,459.361L113.715,457.31Z" style="fill:rgb(16,33,125);fill-rule:nonzero;"/>
            <path d="M117.44,458.587L116.929,460.909L116.929,460.907L117.44,458.587Z" style="fill:rgb(16,33,125);fill-rule:nonzero;"/>
            <path d="M137.747,501.552C139.543,500.648 141.388,499.71 142.904,498.453C143.588,497.884 144.333,497.195 144.645,496.396C144.948,495.628 144.578,494.963 144.214,494.539C143,493.12 141.051,492.186 139.124,491.39C138.725,491.224 138.313,491.08 137.907,490.924L137.747,501.552Z" style="fill:rgb(16,33,125);fill-rule:nonzero;"/>
            <path d="M137.642,508.579L137.46,520.667C139.15,519.568 140.742,518.484 142.065,517.061C143.274,515.76 144.401,513.773 143.601,512.462C143.173,511.76 142.354,511.206 141.632,510.718C140.645,510.049 139.599,509.507 138.706,509.066C138.357,508.893 137.994,508.745 137.642,508.579Z" style="fill:rgb(16,33,125);fill-rule:nonzero;"/>
            <path d="M137.246,534.917C138.217,533.562 138.724,531.887 138.535,530.382C138.43,529.535 138.021,528.734 137.352,527.935L137.246,534.917Z" style="fill:rgb(16,33,125);fill-rule:nonzero;"/>
            <path d="M132.142,530.382C131.954,531.888 132.461,533.564 133.431,534.918L133.325,527.935C132.657,528.733 132.247,529.535 132.142,530.382Z" style="fill:rgb(16,33,125);fill-rule:nonzero;"/>
            <path d="M89.031,496.755L118.102,496.755L118.102,536.73L89.031,536.73L89.031,496.755ZM121.563,493.294C121.185,492.916 120.663,492.7 120.129,492.7L87.004,492.7C86.47,492.7 85.948,492.916 85.57,493.294C85.193,493.671 84.976,494.193 84.976,494.727L84.976,538.758C84.976,539.291 85.193,539.813 85.57,540.191C85.948,540.568 86.47,540.785 87.004,540.785L120.129,540.785C120.663,540.785 121.185,540.568 121.563,540.191C121.94,539.813 122.156,539.291 122.156,538.758L122.156,494.727C122.156,494.264 121.985,493.814 121.695,493.455L121.563,493.294Z" style="fill:rgb(16,33,125);fill-rule:nonzero;"/>
            <path d="M103.81,543.057C102.415,543.057 101.284,544.187 101.284,545.582C101.284,546.977 102.415,548.108 103.81,548.108C105.205,548.108 106.336,546.977 106.336,545.582C106.336,544.187 105.205,543.057 103.81,543.057Z" style="fill:rgb(16,33,125);fill-rule:nonzero;"/>
            <rect x="108.856" y="544.655" width="4.816" height="1.404" style="fill:rgb(16,33,125);"/>
            <rect x="93.941" y="544.655" width="4.817" height="1.404" style="fill:rgb(16,33,125);"/>
            <path d="M107.35,503.26L99.988,503.26L99.988,509.684L93.563,509.684L93.563,517.045L99.988,517.045L99.988,523.47L107.35,523.47L107.35,517.045L113.774,517.045L113.774,509.684L107.35,509.684L107.35,503.26Z" style="fill:rgb(16,33,125);fill-rule:nonzero;"/>
        </g>
    </g>
</svg>
