<?xml version="1.0" encoding="UTF-8" standalone="no"?>
<!DOCTYPE svg PUBLIC "-//W3C//DTD SVG 1.1//EN" "http://www.w3.org/Graphics/SVG/1.1/DTD/svg11.dtd">
<svg width="100%" height="100%" viewBox="0 0 860 853" version="1.1" xmlns="http://www.w3.org/2000/svg" xmlns:xlink="http://www.w3.org/1999/xlink" xml:space="preserve" xmlns:serif="http://www.serif.com/" style="fill-rule:evenodd;clip-rule:evenodd;stroke-linejoin:round;stroke-miterlimit:2;">
    <g transform="matrix(1,0,0,1,-2793.06,-60.319)">
        <g transform="matrix(1,0,0,1,-0.274576,0)">
            <g transform="matrix(1,0,0,1,-3.87499,-3.84558)">
                <g>
                    <g transform="matrix(2.66971,0,0,2.66971,2422.12,47.0893)">
                        <g transform="matrix(47.2476,0,0,47.2476,138.039,275.564)">
                            <path d="M0.052,-0.699L0.204,-0.699L0.204,-0.419L0.509,-0.419L0.509,-0.699L0.661,-0.699L0.661,-0L0.509,-0L0.509,-0.293L0.204,-0.293L0.204,-0L0.052,-0L0.052,-0.699Z" style="fill:rgb(0,27,128);fill-rule:nonzero;"/>
                        </g>
                        <g transform="matrix(47.2476,0,0,47.2476,174.089,275.564)">
                            <path d="M0.052,-0.699L0.537,-0.699L0.537,-0.572L0.204,-0.572L0.204,-0.41L0.449,-0.41L0.449,-0.288L0.204,-0.288L0.204,-0.127L0.537,-0.127L0.537,-0L0.052,-0L0.052,-0.699Z" style="fill:rgb(0,27,128);fill-rule:nonzero;"/>
                        </g>
                        <g transform="matrix(47.2476,0,0,47.2476,202.863,275.564)">
                            <path d="M0.312,-0.699L0.461,-0.699L0.74,-0L0.585,-0L0.525,-0.152L0.248,-0.152L0.188,-0L0.032,-0L0.312,-0.699ZM0.485,-0.273L0.386,-0.539L0.287,-0.273L0.485,-0.273Z" style="fill:rgb(0,27,128);fill-rule:nonzero;"/>
                        </g>
                        <g transform="matrix(47.2476,0,0,47.2476,241.7,275.564)">
                            <path d="M0.052,-0.699L0.204,-0.699L0.204,-0.127L0.524,-0.127L0.524,-0L0.052,-0L0.052,-0.699Z" style="fill:rgb(0,27,128);fill-rule:nonzero;"/>
                        </g>
                        <g transform="matrix(47.2476,0,0,47.2476,265.418,275.564)">
                            <path d="M0.219,-0.572L0.015,-0.572L0.015,-0.699L0.575,-0.699L0.575,-0.572L0.371,-0.572L0.371,-0L0.219,-0L0.219,-0.572Z" style="fill:rgb(0,27,128);fill-rule:nonzero;"/>
                        </g>
                        <g transform="matrix(47.2476,0,0,47.2476,295.657,275.564)">
                            <path d="M0.052,-0.699L0.204,-0.699L0.204,-0.419L0.509,-0.419L0.509,-0.699L0.661,-0.699L0.661,-0L0.509,-0L0.509,-0.293L0.204,-0.293L0.204,-0L0.052,-0L0.052,-0.699Z" style="fill:rgb(0,27,128);fill-rule:nonzero;"/>
                        </g>
                        <g transform="matrix(47.2476,0,0,47.2476,331.707,275.564)">
                            <path d="M0.41,0.015C0.335,0.015 0.269,0 0.212,-0.03C0.155,-0.059 0.11,-0.101 0.079,-0.156C0.048,-0.211 0.032,-0.275 0.032,-0.349C0.032,-0.423 0.048,-0.488 0.079,-0.543C0.11,-0.598 0.155,-0.64 0.212,-0.67C0.269,-0.699 0.335,-0.714 0.41,-0.714C0.507,-0.714 0.587,-0.692 0.652,-0.648L0.652,-0.504C0.623,-0.529 0.589,-0.547 0.552,-0.558C0.514,-0.569 0.471,-0.574 0.423,-0.574C0.35,-0.574 0.293,-0.554 0.251,-0.514C0.208,-0.473 0.187,-0.418 0.187,-0.349C0.187,-0.279 0.208,-0.224 0.251,-0.184C0.294,-0.143 0.351,-0.123 0.423,-0.123C0.472,-0.123 0.516,-0.129 0.554,-0.141C0.592,-0.152 0.627,-0.171 0.66,-0.197L0.66,-0.053C0.599,-0.008 0.515,0.015 0.41,0.015Z" style="fill:rgb(0,182,226);fill-rule:nonzero;"/>
                        </g>
                        <g transform="matrix(47.2476,0,0,47.2476,365.631,275.564)">
                            <path d="M0.312,-0.699L0.461,-0.699L0.74,-0L0.585,-0L0.525,-0.152L0.248,-0.152L0.188,-0L0.032,-0L0.312,-0.699ZM0.485,-0.273L0.386,-0.539L0.287,-0.273L0.485,-0.273Z" style="fill:rgb(0,182,226);fill-rule:nonzero;"/>
                        </g>
                        <g transform="matrix(47.2476,0,0,47.2476,404.468,275.564)">
                            <path d="M0.052,-0.699L0.355,-0.699C0.434,-0.699 0.496,-0.679 0.541,-0.64C0.585,-0.6 0.607,-0.543 0.607,-0.468C0.607,-0.416 0.595,-0.372 0.571,-0.336C0.547,-0.299 0.513,-0.273 0.469,-0.256L0.602,-0L0.446,-0L0.323,-0.237L0.204,-0.237L0.204,-0L0.052,-0L0.052,-0.699ZM0.328,-0.364C0.367,-0.364 0.397,-0.372 0.42,-0.389C0.442,-0.406 0.453,-0.432 0.453,-0.468C0.453,-0.506 0.442,-0.533 0.42,-0.549C0.398,-0.564 0.367,-0.572 0.328,-0.572L0.204,-0.572L0.204,-0.364L0.328,-0.364Z" style="fill:rgb(0,182,226);fill-rule:nonzero;"/>
                        </g>
                        <g transform="matrix(47.2476,0,0,47.2476,437.069,275.564)">
                            <path d="M0.052,-0.699L0.537,-0.699L0.537,-0.572L0.204,-0.572L0.204,-0.41L0.449,-0.41L0.449,-0.288L0.204,-0.288L0.204,-0.127L0.537,-0.127L0.537,-0L0.052,-0L0.052,-0.699Z" style="fill:rgb(0,182,226);fill-rule:nonzero;"/>
                        </g>
                    </g>
                    <g transform="matrix(1.27442,0,0,1.27442,2811.76,564.193)">
                        <g transform="matrix(92.3781,0,0,92.3781,138.039,275.564)">
                            <path d="M0.248,0.015C0.203,0.015 0.167,0.002 0.143,-0.025C0.118,-0.052 0.105,-0.09 0.105,-0.139L0.105,-0.42L0.03,-0.42L0.03,-0.48L0.105,-0.48L0.105,-0.624L0.182,-0.624L0.182,-0.48L0.303,-0.48L0.303,-0.42L0.182,-0.42L0.182,-0.137C0.182,-0.104 0.189,-0.08 0.202,-0.067C0.215,-0.053 0.24,-0.046 0.275,-0.046C0.292,-0.046 0.311,-0.05 0.33,-0.058L0.33,0.005C0.308,0.012 0.281,0.015 0.248,0.015Z" style="fill-rule:nonzero;"/>
                        </g>
                        <g transform="matrix(92.3781,0,0,92.3781,174.528,275.564)">
                            <path d="M0.328,0.015C0.241,0.015 0.173,-0.007 0.124,-0.052C0.075,-0.097 0.05,-0.159 0.05,-0.239C0.05,-0.318 0.072,-0.38 0.116,-0.426C0.16,-0.472 0.223,-0.495 0.304,-0.495C0.359,-0.495 0.405,-0.485 0.443,-0.464C0.481,-0.443 0.51,-0.414 0.529,-0.377C0.548,-0.34 0.558,-0.299 0.558,-0.252L0.558,-0.21L0.122,-0.21C0.125,-0.155 0.145,-0.114 0.183,-0.087C0.22,-0.06 0.271,-0.046 0.336,-0.046C0.367,-0.046 0.398,-0.049 0.429,-0.055C0.459,-0.06 0.486,-0.068 0.51,-0.078L0.51,-0.013C0.49,-0.005 0.463,0.002 0.429,0.007C0.394,0.012 0.361,0.015 0.328,0.015ZM0.486,-0.265C0.485,-0.317 0.469,-0.358 0.438,-0.388C0.407,-0.418 0.362,-0.433 0.303,-0.433C0.245,-0.433 0.201,-0.418 0.17,-0.387C0.139,-0.356 0.123,-0.315 0.122,-0.265L0.486,-0.265Z" style="fill-rule:nonzero;"/>
                        </g>
                        <g transform="matrix(92.3781,0,0,92.3781,233.466,275.564)">
                            <rect x="0.07" y="-0.739" width="0.077" height="0.739" style="fill-rule:nonzero;"/>
                        </g>
                        <g transform="matrix(92.3781,0,0,92.3781,256.283,275.564)">
                            <path d="M0.328,0.015C0.241,0.015 0.173,-0.007 0.124,-0.052C0.075,-0.097 0.05,-0.159 0.05,-0.239C0.05,-0.318 0.072,-0.38 0.116,-0.426C0.16,-0.472 0.223,-0.495 0.304,-0.495C0.359,-0.495 0.405,-0.485 0.443,-0.464C0.481,-0.443 0.51,-0.414 0.529,-0.377C0.548,-0.34 0.558,-0.299 0.558,-0.252L0.558,-0.21L0.122,-0.21C0.125,-0.155 0.145,-0.114 0.183,-0.087C0.22,-0.06 0.271,-0.046 0.336,-0.046C0.367,-0.046 0.398,-0.049 0.429,-0.055C0.459,-0.06 0.486,-0.068 0.51,-0.078L0.51,-0.013C0.49,-0.005 0.463,0.002 0.429,0.007C0.394,0.012 0.361,0.015 0.328,0.015ZM0.486,-0.265C0.485,-0.317 0.469,-0.358 0.438,-0.388C0.407,-0.418 0.362,-0.433 0.303,-0.433C0.245,-0.433 0.201,-0.418 0.17,-0.387C0.139,-0.356 0.123,-0.315 0.122,-0.265L0.486,-0.265Z" style="fill-rule:nonzero;"/>
                        </g>
                        <g transform="matrix(92.3781,0,0,92.3781,315.22,275.564)">
                            <path d="M0.07,-0.48L0.144,-0.48L0.144,-0.405C0.19,-0.465 0.247,-0.495 0.315,-0.495C0.355,-0.495 0.386,-0.488 0.409,-0.474C0.431,-0.46 0.447,-0.439 0.457,-0.411C0.478,-0.44 0.505,-0.461 0.537,-0.475C0.568,-0.488 0.601,-0.495 0.634,-0.495C0.691,-0.495 0.733,-0.48 0.759,-0.451C0.785,-0.422 0.798,-0.378 0.798,-0.321L0.798,-0L0.722,-0L0.722,-0.312C0.722,-0.357 0.714,-0.388 0.699,-0.406C0.683,-0.424 0.655,-0.433 0.615,-0.433C0.558,-0.433 0.51,-0.407 0.473,-0.356C0.475,-0.347 0.476,-0.331 0.476,-0.31L0.476,-0L0.401,-0L0.401,-0.31C0.401,-0.355 0.394,-0.386 0.379,-0.405C0.364,-0.424 0.337,-0.433 0.297,-0.433C0.24,-0.433 0.189,-0.401 0.146,-0.337L0.146,-0L0.07,-0L0.07,-0.48Z" style="fill-rule:nonzero;"/>
                        </g>
                        <g transform="matrix(92.3781,0,0,92.3781,397.714,275.564)">
                            <path d="M0.328,0.015C0.241,0.015 0.173,-0.007 0.124,-0.052C0.075,-0.097 0.05,-0.159 0.05,-0.239C0.05,-0.318 0.072,-0.38 0.116,-0.426C0.16,-0.472 0.223,-0.495 0.304,-0.495C0.359,-0.495 0.405,-0.485 0.443,-0.464C0.481,-0.443 0.51,-0.414 0.529,-0.377C0.548,-0.34 0.558,-0.299 0.558,-0.252L0.558,-0.21L0.122,-0.21C0.125,-0.155 0.145,-0.114 0.183,-0.087C0.22,-0.06 0.271,-0.046 0.336,-0.046C0.367,-0.046 0.398,-0.049 0.429,-0.055C0.459,-0.06 0.486,-0.068 0.51,-0.078L0.51,-0.013C0.49,-0.005 0.463,0.002 0.429,0.007C0.394,0.012 0.361,0.015 0.328,0.015ZM0.486,-0.265C0.485,-0.317 0.469,-0.358 0.438,-0.388C0.407,-0.418 0.362,-0.433 0.303,-0.433C0.245,-0.433 0.201,-0.418 0.17,-0.387C0.139,-0.356 0.123,-0.315 0.122,-0.265L0.486,-0.265Z" style="fill-rule:nonzero;"/>
                        </g>
                        <g transform="matrix(92.3781,0,0,92.3781,456.651,275.564)">
                            <path d="M0.301,0.015C0.254,0.015 0.211,0.005 0.173,-0.016C0.135,-0.037 0.105,-0.066 0.083,-0.105C0.061,-0.144 0.05,-0.188 0.05,-0.239C0.05,-0.289 0.061,-0.333 0.083,-0.373C0.104,-0.411 0.134,-0.442 0.173,-0.463C0.211,-0.484 0.254,-0.495 0.301,-0.495C0.347,-0.495 0.388,-0.487 0.424,-0.471C0.459,-0.454 0.488,-0.43 0.509,-0.399L0.509,-0.739L0.586,-0.739L0.586,-0L0.511,-0L0.511,-0.084C0.486,-0.051 0.456,-0.026 0.422,-0.01C0.387,0.007 0.347,0.015 0.301,0.015ZM0.317,-0.046C0.363,-0.046 0.403,-0.058 0.438,-0.082C0.472,-0.105 0.496,-0.138 0.509,-0.179L0.509,-0.299C0.496,-0.34 0.473,-0.373 0.439,-0.397C0.404,-0.421 0.364,-0.433 0.317,-0.433C0.282,-0.433 0.25,-0.425 0.221,-0.409C0.192,-0.392 0.169,-0.369 0.152,-0.34C0.135,-0.311 0.127,-0.277 0.127,-0.239C0.127,-0.201 0.135,-0.167 0.152,-0.138C0.169,-0.109 0.192,-0.086 0.221,-0.07C0.25,-0.054 0.282,-0.046 0.317,-0.046Z" style="fill-rule:nonzero;"/>
                        </g>
                    </g>
                    <g transform="matrix(2.0182,0,0,2.0182,726.886,-3619.86)">
                        <g transform="matrix(1,0,0,0.706391,10.0853,731.41)">
                            <path d="M1285.97,1585.27C1347.45,1667.96 1395.91,1771.76 1285.97,1890.52C1195.61,1988.11 1086.7,1866.32 1108.75,1735.77C1134.17,1585.27 1217.93,1493.75 1285.97,1585.27Z" style="fill:url(#_Linear1);"/>
                        </g>
                        <g transform="matrix(0.847389,-0.847389,0.847389,0.847389,412.56,1549.59)">
                            <path d="M279.38,660.922C284.224,656.078 292.078,656.078 296.922,660.922C302.173,666.173 308.827,672.827 314.078,678.078C318.922,682.922 318.922,690.776 314.078,695.62C300.44,709.258 275.699,734 275.699,734C275.699,734 300.44,758.742 314.078,772.38C318.922,777.224 318.922,785.078 314.078,789.922C308.827,795.173 302.173,801.827 296.922,807.078C292.078,811.922 284.224,811.922 279.38,807.078C265.742,793.44 241,768.699 241,768.699C241,768.699 216.258,793.44 202.62,807.078C197.776,811.922 189.922,811.922 185.078,807.078C179.827,801.827 173.173,795.173 167.922,789.922C163.078,785.078 163.078,777.224 167.922,772.38C181.56,758.742 206.301,734 206.301,734C206.301,734 181.56,709.258 167.922,695.62C163.078,690.776 163.078,682.922 167.922,678.078C173.173,672.827 179.827,666.173 185.078,660.922C189.922,656.078 197.776,656.078 202.62,660.922C216.258,674.56 241,699.301 241,699.301C241,699.301 265.742,674.56 279.38,660.922Z" style="fill:white;"/>
                        </g>
                    </g>
                </g>
            </g>
        </g>
    </g>
    <defs>
        <linearGradient id="_Linear1" x1="0" y1="0" x2="1" y2="0" gradientUnits="userSpaceOnUse" gradientTransform="matrix(245.618,-230.875,149.041,317.76,1105.87,1868.46)"><stop offset="0" style="stop-color:rgb(0,182,226);stop-opacity:1"/><stop offset="1" style="stop-color:rgb(0,27,128);stop-opacity:1"/></linearGradient>
    </defs>
</svg>
